<svg width="280" height="280" viewBox="0 0 280 280" fill="none" xmlns="http://www.w3.org/2000/svg">
<path d="M233.125 4.96875C227.807 4.96878 222.565 6.23259 217.832 8.65602C213.098 11.0794 209.008 14.5931 205.899 18.9074C202.789 23.2217 200.75 28.2132 199.948 33.4704C199.147 38.7276 199.606 44.1 201.288 49.1449L214.5 88.7812H70.1563V275.031H219.156C233.975 275.031 248.187 269.144 258.666 258.666C269.144 248.187 275.031 233.975 275.031 219.156V88.7812L233.125 4.96875Z" fill="#FDBF92"/>
<path d="M88.7813 228.469H60.8438C47.9859 228.469 37.5625 238.892 37.5625 251.75C37.5625 264.608 47.9859 275.031 60.8438 275.031H88.7813C101.639 275.031 112.063 264.608 112.063 251.75C112.063 238.892 101.639 228.469 88.7813 228.469Z" fill="#FDB683"/>
<path d="M140 65.5C133.554 65.5 127.252 63.5884 121.892 60.0069C116.532 56.4255 112.354 51.335 109.887 45.3793C107.42 39.4236 106.775 32.87 108.033 26.5475C109.29 20.2249 112.394 14.4173 116.953 9.85894C121.511 5.30062 127.319 2.19637 133.641 0.938733C139.964 -0.318904 146.517 0.326561 152.473 2.7935C158.429 5.26045 163.519 9.43807 167.101 14.7981C170.682 20.1581 172.594 26.4598 172.594 32.9062C172.584 41.5476 169.147 49.8323 163.037 55.9427C156.926 62.0532 148.641 65.4902 140 65.5V65.5ZM140 9.62495C135.395 9.62495 130.894 10.9904 127.066 13.5486C123.237 16.1067 120.253 19.7428 118.491 23.9969C116.729 28.2509 116.268 32.932 117.166 37.4481C118.064 41.9643 120.282 46.1126 123.538 49.3685C126.794 52.6245 130.942 54.8418 135.458 55.7401C139.974 56.6384 144.655 56.1774 148.909 54.4153C153.163 52.6532 156.799 49.6692 159.358 45.8406C161.916 42.012 163.281 37.5108 163.281 32.9062C163.274 26.7338 160.819 20.8161 156.455 16.4515C152.09 12.0869 146.172 9.63189 140 9.62495Z" fill="#FFB431"/>
<path d="M130.688 42.2188H149.312V74.8125H130.688V42.2188Z" fill="#C7483C"/>
<path d="M149.313 265.719C203.316 265.719 247.094 221.941 247.094 167.938C247.094 113.934 203.316 70.1562 149.313 70.1562C95.3094 70.1562 51.5313 113.934 51.5313 167.938C51.5313 221.941 95.3094 265.719 149.313 265.719Z" fill="#FDB683"/>
<path d="M93.4375 93.4375L64.1363 64.1363C63.7039 63.7039 63.1906 63.3609 62.6257 63.1269C62.0607 62.8928 61.4552 62.7724 60.8438 62.7724C60.2323 62.7724 59.6268 62.8928 59.0618 63.1269C58.4969 63.3609 57.9836 63.7039 57.5512 64.1363L45.5113 76.1762C45.0789 76.6085 44.7359 77.1219 44.5019 77.6868C44.2679 78.2517 44.1474 78.8572 44.1474 79.4687C44.1474 80.0802 44.2679 80.6857 44.5019 81.2506C44.7359 81.8156 45.0789 82.3289 45.5113 82.7613L74.8125 112.062L93.4375 93.4375Z" fill="#C7483C"/>
<path d="M186.562 93.4375L215.864 64.1363C216.296 63.7039 216.809 63.3609 217.374 63.1269C217.939 62.8928 218.545 62.7724 219.156 62.7724C219.768 62.7724 220.373 62.8928 220.938 63.1269C221.503 63.3609 222.016 63.7039 222.449 64.1363L234.489 76.1762C234.921 76.6085 235.264 77.1219 235.498 77.6868C235.732 78.2517 235.853 78.8572 235.853 79.4687C235.853 80.0802 235.732 80.6857 235.498 81.2506C235.264 81.8156 234.921 82.3289 234.489 82.7613L205.187 112.062L186.562 93.4375Z" fill="#C7483C"/>
<path d="M140 256.406C194.003 256.406 237.781 212.628 237.781 158.625C237.781 104.622 194.003 60.8438 140 60.8438C85.9969 60.8438 42.2188 104.622 42.2188 158.625C42.2188 212.628 85.9969 256.406 140 256.406Z" fill="#D65246"/>
<path d="M140 237.781C183.717 237.781 219.156 202.342 219.156 158.625C219.156 114.908 183.717 79.4688 140 79.4688C96.2832 79.4688 60.8438 114.908 60.8438 158.625C60.8438 202.342 96.2832 237.781 140 237.781Z" fill="#F2D53C"/>
<path d="M140 223.812C176.002 223.812 205.188 194.627 205.188 158.625C205.188 122.623 176.002 93.4375 140 93.4375C103.998 93.4375 74.8125 122.623 74.8125 158.625C74.8125 194.627 103.998 223.812 140 223.812Z" fill="#F1EEA1"/>
<path d="M121.375 23.5938H158.625V42.2188H121.375V23.5938Z" fill="#D65246"/>
<path d="M135.344 205.188H144.656V223.812H135.344V205.188Z" fill="#FFB431"/>
<path d="M135.344 93.4375H144.656V112.062H135.344V93.4375Z" fill="#FFB431"/>
<path d="M159.245 201.272L167.309 196.616L176.622 212.745L168.557 217.402L159.245 201.272Z" fill="#FFB431"/>
<path d="M103.371 104.496L111.435 99.8396L120.748 115.969L112.683 120.625L103.371 104.496Z" fill="#FFB431"/>
<path d="M177.991 185.942L182.647 177.878L198.776 187.19L194.12 195.254L177.991 185.942Z" fill="#FFB431"/>
<path d="M81.2143 130.065L85.8702 122.001L101.999 131.313L97.3435 139.377L81.2143 130.065Z" fill="#FFB431"/>
<path d="M186.563 153.969H205.188V163.281H186.563V153.969Z" fill="#FFB431"/>
<path d="M74.8125 153.969H93.4375V163.281H74.8125V153.969Z" fill="#FFB431"/>
<path d="M81.2122 187.187L97.3415 177.875L101.997 185.939L85.8682 195.251L81.2122 187.187Z" fill="#FFB431"/>
<path d="M159.246 115.977L168.558 99.8477L176.623 104.504L167.31 120.633L159.246 115.977Z" fill="#FFB431"/>
<path d="M103.368 212.754L112.681 196.625L120.745 201.281L111.433 217.41L103.368 212.754Z" fill="#FFB431"/>
<path d="M140 172.594C147.715 172.594 153.969 166.34 153.969 158.625C153.969 150.91 147.715 144.656 140 144.656C132.285 144.656 126.031 150.91 126.031 158.625C126.031 166.34 132.285 172.594 140 172.594Z" fill="#FFB431"/>
<path d="M145.689 149.955L193.594 122.011L198.287 130.057L150.382 158.001L145.689 149.955Z" fill="#FFB431"/>
<path d="M56.1875 88.7812H28.25C15.3921 88.7812 4.96875 99.2046 4.96875 112.062C4.96875 124.92 15.3921 135.344 28.25 135.344H56.1875C69.0454 135.344 79.4688 124.92 79.4688 112.062C79.4688 99.2046 69.0454 88.7812 56.1875 88.7812Z" fill="#FDC8A2"/>
<path d="M56.1875 135.344H28.25C15.3921 135.344 4.96875 145.767 4.96875 158.625C4.96875 171.483 15.3921 181.906 28.25 181.906H56.1875C69.0454 181.906 79.4688 171.483 79.4688 158.625C79.4688 145.767 69.0454 135.344 56.1875 135.344Z" fill="#FDC8A2"/>
<path d="M70.1563 181.906H42.2188C29.3609 181.906 18.9375 192.33 18.9375 205.188C18.9375 218.045 29.3609 228.469 42.2188 228.469H70.1563C83.0141 228.469 93.4375 218.045 93.4375 205.188C93.4375 192.33 83.0141 181.906 70.1563 181.906Z" fill="#FDC8A2"/>
<path d="M79.4688 228.469H51.5313C38.6734 228.469 28.25 238.892 28.25 251.75C28.25 264.608 38.6734 275.031 51.5313 275.031H79.4688C92.3266 275.031 102.75 264.608 102.75 251.75C102.75 238.892 92.3266 228.469 79.4688 228.469Z" fill="#FDC8A2"/>
<path d="M56.1875 130.688H28.25C25.6784 130.688 23.5938 132.772 23.5938 135.344C23.5938 137.915 25.6784 140 28.25 140H56.1875C58.7591 140 60.8438 137.915 60.8438 135.344C60.8438 132.772 58.7591 130.688 56.1875 130.688Z" fill="#FDB683"/>
<path d="M56.8114 177.25H36.9386C34.7116 177.25 32.9063 179.055 32.9063 181.282V182.53C32.9063 184.757 34.7116 186.562 36.9386 186.562H56.8114C59.0384 186.562 60.8438 184.757 60.8438 182.53V181.282C60.8438 179.055 59.0384 177.25 56.8114 177.25Z" fill="#FDB683"/>
<path d="M70.7802 223.812H50.9073C48.6803 223.812 46.875 225.618 46.875 227.845V229.093C46.875 231.32 48.6803 233.125 50.9073 233.125H70.7802C73.0072 233.125 74.8125 231.32 74.8125 229.093V227.845C74.8125 225.618 73.0072 223.812 70.7802 223.812Z" fill="#FDB683"/>
<path d="M279.196 86.6987L237.289 2.88622C236.903 2.11286 236.308 1.46245 235.573 1.00788C234.837 0.5533 233.99 0.312507 233.125 0.312478C227.07 0.312027 221.101 1.7506 215.711 4.50963C210.321 7.26866 205.663 11.2692 202.122 16.1814C198.582 21.0937 196.259 26.777 195.346 32.7631C194.433 38.7491 194.955 44.8665 196.87 50.611L203.352 70.0625L198.728 74.6868C198.11 74.9417 192.672 70.7365 192.014 70.3518C191.963 70.3215 191.911 70.2936 191.859 70.2645C182.151 64.5363 171.553 60.4714 160.504 58.238C165.743 53.9987 169.538 48.24 171.369 41.7545C173.199 35.269 172.974 28.3756 170.725 22.0232C168.476 15.6708 164.313 10.1717 158.81 6.28283C153.306 2.39396 146.733 0.306523 139.994 0.307862C133.255 0.309201 126.682 2.39925 121.18 6.29031C115.678 10.1814 111.518 15.6821 109.271 22.0354C107.024 28.3887 106.802 35.2822 108.635 41.767C110.468 48.2517 114.266 54.0089 119.506 58.2461C105.768 61.0408 92.7537 66.641 81.2789 74.6961L67.43 60.8437C65.6816 59.0997 63.313 58.1203 60.8435 58.1203C58.374 58.1203 56.0053 59.0997 54.2569 60.8437L42.2188 72.8819C40.7664 74.3304 39.8344 76.2189 39.568 78.2527C39.3016 80.2865 39.7159 82.3513 40.7462 84.125H28.25C23.9104 84.1076 19.6273 85.1091 15.7454 87.0491C11.8636 88.989 8.49128 91.8131 5.90001 95.2942L13.35 100.887C15.0774 98.5664 17.3255 96.6831 19.9133 95.3891C22.5012 94.0952 25.3567 93.4267 28.25 93.4375H56.1875C61.1272 93.4375 65.8645 95.3998 69.3574 98.8926C72.8502 102.385 74.8125 107.123 74.8125 112.062C74.8125 117.002 72.8502 121.739 69.3574 125.232C65.8645 128.725 61.1272 130.687 56.1875 130.687H28.25C25.4886 130.684 22.7623 130.068 20.2682 128.883C17.774 127.698 15.5743 125.973 13.8278 123.834C12.0813 121.695 10.8318 119.195 10.1694 116.514C9.50695 113.834 9.44826 111.039 9.99751 108.333L0.871255 106.48C-0.236223 111.935 0.310376 117.596 2.44101 122.739C4.57164 127.881 8.18925 132.27 12.8303 135.344C8.26758 138.362 4.69214 142.655 2.54799 147.688C0.40384 152.721 -0.214548 158.273 0.769626 163.654C1.7538 169.036 4.29717 174.01 8.08387 177.958C11.8706 181.907 16.7337 184.656 22.0694 185.864C18.8614 189.201 16.534 193.284 15.2967 197.745C14.0595 202.206 13.9513 206.905 14.9819 211.418C16.0125 215.931 18.1495 220.116 21.2005 223.598C24.2515 227.079 28.1205 229.747 32.4593 231.361C28.362 235.186 25.5109 240.156 24.2771 245.624C23.0433 251.092 23.4839 256.804 25.5415 262.018C27.5992 267.232 31.1786 271.706 35.814 274.857C40.4494 278.008 45.9261 279.692 51.5313 279.687H79.4688C86.1969 279.678 92.6964 277.245 97.7761 272.833C102.856 268.421 106.175 262.326 107.126 255.666C117.714 259.255 128.82 261.078 140 261.062C196.484 261.062 242.438 215.109 242.438 158.625C242.506 137.605 236.041 117.083 223.936 99.898L237.781 86.0556C238.647 85.1908 239.333 84.1639 239.801 83.0337C240.27 81.9035 240.511 80.6921 240.511 79.4687C240.511 78.2453 240.27 77.0339 239.801 75.9037C239.333 74.7735 238.647 73.7467 237.781 72.8819L225.743 60.8437C223.994 59.0997 221.625 58.1203 219.156 58.1203C216.686 58.1203 214.318 59.0997 212.569 60.8437L210.715 62.6981L205.705 47.6636C204.332 43.5444 203.905 39.1688 204.455 34.8619C205.006 30.5549 206.519 26.4272 208.883 22.7854C211.247 19.1435 214.401 16.0809 218.111 13.8252C221.821 11.5694 225.992 10.1784 230.313 9.75535L270.375 89.8807V219.156C270.36 232.736 264.958 245.754 255.356 255.356C245.754 264.958 232.736 270.36 219.156 270.375H107.406V279.687H219.156C235.205 279.669 250.59 273.286 261.938 261.938C273.286 250.59 279.669 235.205 279.688 219.156V88.7812C279.688 88.0583 279.519 87.3453 279.196 86.6987V86.6987ZM149.313 37.5625H130.688V28.25H149.313V37.5625ZM135.344 46.875H144.656V56.2963C141.565 56.159 138.429 56.159 135.344 56.2963V46.875ZM140 9.62498C144.886 9.62498 149.649 11.1624 153.613 14.0195C157.577 16.8766 160.541 20.9085 162.087 25.5441C163.632 30.1796 163.679 35.1839 162.222 39.8479C160.765 44.512 157.878 48.5994 153.969 51.5312V46.875C155.204 46.875 156.388 46.3844 157.261 45.5112C158.134 44.638 158.625 43.4536 158.625 42.2187V23.5937C158.625 22.3588 158.134 21.1745 157.261 20.3013C156.388 19.428 155.204 18.9375 153.969 18.9375H126.031C124.796 18.9375 123.612 19.428 122.739 20.3013C121.866 21.1745 121.375 22.3588 121.375 23.5937V42.2187C121.375 43.4536 121.866 44.638 122.739 45.5112C123.612 46.3844 124.796 46.875 126.031 46.875V51.5312C122.122 48.5994 119.235 44.512 117.778 39.8479C116.321 35.1839 116.368 30.1796 117.913 25.5441C119.459 20.9085 122.423 16.8766 126.387 14.0195C130.351 11.1624 135.114 9.62498 140 9.62498V9.62498ZM53.4607 84.125L48.8044 79.4687L60.8438 67.4306L73.8399 80.4268C71.5851 82.3358 69.4122 84.3425 67.3212 86.4467C63.8099 84.913 60.0192 84.1225 56.1875 84.125H53.4607ZM9.62501 158.625C9.63055 153.687 11.5946 148.953 15.0863 145.461C18.5779 141.97 23.3121 140.006 28.25 140H56.1875C61.1272 140 65.8645 141.962 69.3574 145.455C72.8502 148.948 74.8125 153.685 74.8125 158.625C74.8125 163.565 72.8502 168.302 69.3574 171.795C65.8645 175.288 61.1272 177.25 56.1875 177.25H28.25C23.3121 177.244 18.5779 175.28 15.0863 171.789C11.5946 168.297 9.63055 163.563 9.62501 158.625V158.625ZM42.2188 223.812C37.2791 223.812 32.5418 221.85 29.0489 218.357C25.556 214.864 23.5938 210.127 23.5938 205.187C23.5938 200.248 25.556 195.51 29.0489 192.018C32.5418 188.525 37.2791 186.562 42.2188 186.562H70.1563C75.0959 186.562 79.8333 188.525 83.3261 192.018C86.819 195.51 88.7813 200.248 88.7813 205.187C88.7813 210.127 86.819 214.864 83.3261 218.357C79.8333 221.85 75.0959 223.812 70.1563 223.812H42.2188ZM79.4688 270.375H51.5313C46.5916 270.375 41.8543 268.413 38.3614 264.92C34.8685 261.427 32.9063 256.69 32.9063 251.75C32.9063 246.81 34.8685 242.073 38.3614 238.58C41.8543 235.087 46.5916 233.125 51.5313 233.125H79.4688C84.4084 233.125 89.1458 235.087 92.6386 238.58C96.1315 242.073 98.0938 246.81 98.0938 251.75C98.0938 256.69 96.1315 261.427 92.6386 264.92C89.1458 268.413 84.4084 270.375 79.4688 270.375ZM140 251.75C128.625 251.77 117.344 249.694 106.722 245.625C105.694 241.095 103.558 236.892 100.505 233.393C97.4512 229.893 93.5764 227.207 89.2283 225.575C93.936 221.186 96.9796 215.302 97.8422 208.924C98.7049 202.545 97.3334 196.065 93.9608 190.583L102.005 185.939L97.3488 177.873L87.6824 183.453C84.3711 180.775 80.4895 178.891 76.3363 177.947C80.2171 173.911 82.7928 168.8 83.7281 163.28H93.4375V153.969H83.7298C83.0882 150.201 81.6816 146.605 79.5966 143.401C77.5117 140.198 74.7927 137.456 71.6073 135.344C75.1259 133.019 78.0718 129.928 80.2233 126.301C82.3748 122.674 83.6759 118.606 84.0289 114.404C84.3818 110.202 83.7773 105.974 82.261 102.039C80.7446 98.1042 78.3557 94.5642 75.2741 91.6856C84.95 82.3239 96.5414 75.1725 109.249 70.7246C121.956 66.2767 135.477 64.6381 148.879 65.922C195.471 70.4275 233.125 111.387 233.125 158.625C233.125 209.975 191.349 251.75 140 251.75V251.75ZM219.156 67.4306L231.194 79.4687L218.192 92.4713C214.519 88.1315 210.493 84.1038 206.155 80.4297L219.156 67.4306Z" fill="black"/>
<path d="M140 74.8125C120.134 74.8149 100.915 81.8708 85.7669 94.7226L91.7956 101.819C101.962 93.2036 114.253 87.4737 127.387 85.2262C140.522 82.9788 154.019 84.2963 166.471 89.0412C178.923 93.7862 189.874 101.785 198.183 112.203C206.491 122.622 211.852 135.078 213.707 148.274C215.562 161.47 213.842 174.922 208.728 187.227C203.614 199.532 195.293 210.24 184.631 218.234C173.97 226.227 161.359 231.215 148.114 232.676C134.869 234.136 121.474 232.017 109.327 226.538L105.486 235.023C116.327 239.936 128.097 242.464 140 242.438C186.213 242.438 223.813 204.838 223.813 158.625C223.813 112.412 186.213 74.8125 140 74.8125V74.8125Z" fill="black"/>
<path d="M135.344 205.188H144.656V223.812H135.344V205.188Z" fill="black"/>
<path d="M135.344 93.4375H144.656V112.062H135.344V93.4375Z" fill="black"/>
<path d="M159.245 201.272L167.309 196.616L176.622 212.745L168.557 217.402L159.245 201.272Z" fill="black"/>
<path d="M103.371 104.496L111.435 99.8396L120.748 115.969L112.683 120.625L103.371 104.496Z" fill="black"/>
<path d="M177.991 185.942L182.647 177.878L198.776 187.19L194.12 195.254L177.991 185.942Z" fill="black"/>
<path d="M81.2143 130.065L85.8702 122.001L101.999 131.313L97.3435 139.377L81.2143 130.065Z" fill="black"/>
<path d="M186.562 153.969H205.188V163.281H186.562V153.969Z" fill="black"/>
<path d="M159.246 115.977L168.558 99.8477L176.623 104.504L167.31 120.633L159.246 115.977Z" fill="black"/>
<path d="M103.368 212.754L112.681 196.625L120.745 201.281L111.433 217.41L103.368 212.754Z" fill="black"/>
<path d="M126.031 158.625C126.03 160.571 126.435 162.496 127.221 164.276C128.006 166.056 129.155 167.653 130.594 168.963C132.033 170.273 133.729 171.268 135.575 171.885C137.421 172.501 139.375 172.725 141.312 172.542C143.25 172.36 145.127 171.774 146.825 170.823C148.523 169.872 150.003 168.577 151.172 167.021C152.34 165.465 153.17 163.682 153.609 161.786C154.048 159.89 154.086 157.924 153.72 156.012L198.221 130.054L193.529 122.01L149.021 147.974C146.99 146.25 144.508 145.143 141.867 144.785C139.227 144.426 136.539 144.831 134.122 145.951C131.704 147.071 129.658 148.86 128.224 151.105C126.79 153.351 126.03 155.961 126.031 158.625V158.625ZM140 153.969C140.921 153.969 141.821 154.242 142.587 154.753C143.353 155.265 143.949 155.992 144.302 156.843C144.654 157.694 144.746 158.63 144.567 159.533C144.387 160.437 143.944 161.266 143.292 161.917C142.641 162.569 141.812 163.012 140.908 163.192C140.005 163.371 139.069 163.279 138.218 162.927C137.367 162.574 136.64 161.978 136.128 161.212C135.617 160.446 135.344 159.546 135.344 158.625C135.345 157.39 135.836 156.207 136.709 155.334C137.582 154.461 138.766 153.97 140 153.969V153.969Z" fill="black"/>
</svg>
