<svg width="298" height="298" viewBox="0 0 298 298" fill="none" xmlns="http://www.w3.org/2000/svg">
<g clip-path="url(#clip0_510_2449)">
<path d="M297.426 162.765C294.75 135.853 282.727 110.481 263.569 91.3233C247.198 74.9522 227.159 64.4319 206.074 59.754V44.9655C214.686 42.823 221.087 35.0278 221.087 25.7623C221.087 14.8502 212.21 5.9729 201.298 5.9729H159.391C148.479 5.9729 139.602 14.8502 139.602 25.7623C139.602 35.0272 146.003 42.8225 154.614 44.9655V59.7953C133.594 64.493 113.622 74.9988 97.2968 91.3239C93.7242 94.8964 90.4299 98.6442 87.4143 102.539C87.2682 102.528 87.1221 102.517 86.9731 102.517H45.4963C42.2823 102.517 39.6759 105.123 39.6759 108.337C39.6759 111.552 42.2823 114.158 45.4963 114.158H79.4945C75.227 121.302 71.7859 128.806 69.1668 136.529H5.8204C2.60638 136.529 0 139.135 0 142.35C0 145.564 2.60638 148.17 5.8204 148.17H65.8777C64.2002 155.533 63.2375 163.027 62.989 170.542H37.2506C34.0366 170.542 31.4302 173.148 31.4302 176.362C31.4302 179.577 34.0366 182.183 37.2506 182.183H63.1747C63.6659 189.717 64.8771 197.211 66.8089 204.555H29.102C25.888 204.555 23.2816 207.16 23.2816 210.375C23.2816 213.59 25.888 216.195 29.102 216.195H70.5235C76.2333 231.3 85.1566 245.457 97.2968 257.597C116.473 276.773 141.871 288.799 168.811 291.461C172.656 291.84 176.504 292.028 180.346 292.028C203.059 292.028 225.482 285.455 244.509 273.065C247.203 271.311 247.965 267.705 246.211 265.011C244.456 262.317 240.851 261.556 238.157 263.31C196.508 290.431 140.729 284.567 105.528 249.366C64.2252 208.063 64.2252 140.859 105.528 99.5557C146.83 58.2535 214.034 58.2535 255.338 99.5557C290.492 134.711 296.388 190.442 269.357 232.071C267.606 234.767 268.372 238.372 271.068 240.122C273.765 241.873 277.369 241.106 279.119 238.41C293.562 216.167 300.063 189.303 297.426 162.765ZM151.243 25.7629C151.243 21.2695 154.898 17.6143 159.391 17.6143H201.298C205.791 17.6143 209.447 21.2695 209.447 25.7629C209.447 30.2562 205.791 33.9114 201.298 33.9114H200.254H160.435H159.391C154.898 33.9114 151.243 30.2556 151.243 25.7629ZM166.255 57.7943V45.5522H194.433V57.7733C185.077 56.6605 175.61 56.6674 166.255 57.7943Z" fill="black"/>
<path d="M259.456 247.658C257.919 247.658 256.424 248.281 255.342 249.363C254.253 250.446 253.636 251.948 253.636 253.478C253.636 255.009 254.253 256.511 255.342 257.593C256.424 258.682 257.92 259.299 259.456 259.299C260.987 259.299 262.483 258.682 263.571 257.593C264.654 256.511 265.276 255.009 265.276 253.478C265.276 251.948 264.654 250.446 263.571 249.363C262.483 248.281 260.986 247.658 259.456 247.658Z" fill="black"/>
<path d="M180.433 84.1683C130.647 84.1683 90.1418 124.672 90.1418 174.46C90.1418 224.247 130.647 264.751 180.433 264.751C230.22 264.751 270.725 224.247 270.725 174.46C270.725 124.672 230.22 84.1683 180.433 84.1683ZM180.433 253.11C137.065 253.11 101.783 217.827 101.783 174.46C101.783 131.092 137.065 95.8091 180.433 95.8091C223.802 95.8091 259.084 131.092 259.084 174.46C259.084 217.827 223.802 253.11 180.433 253.11Z" fill="black"/>
<path d="M217.251 129.411L188.422 158.239C186.011 157.047 183.3 156.373 180.433 156.373C177.566 156.373 174.855 157.047 172.444 158.239L159.542 145.337C157.268 143.064 153.584 143.064 151.31 145.337C149.037 147.609 149.037 151.295 151.31 153.568L164.212 166.47C163.02 168.881 162.347 171.592 162.347 174.459C162.347 184.432 170.46 192.545 180.433 192.545C190.406 192.545 198.519 184.432 198.519 174.459C198.519 171.592 197.846 168.881 196.654 166.47L224.636 138.488L225.482 137.642C227.755 135.369 227.755 131.684 225.482 129.411C223.209 127.138 219.525 127.138 217.251 129.411ZM180.433 180.905C176.879 180.905 173.988 178.014 173.988 174.46C173.988 170.906 176.879 168.014 180.433 168.014C183.987 168.014 186.879 170.906 186.879 174.46C186.879 178.014 183.987 180.905 180.433 180.905Z" fill="black"/>
<path d="M242.664 168.71H237.271C234.058 168.71 231.451 171.316 231.451 174.531C231.451 177.745 234.058 180.351 237.271 180.351H242.664C245.878 180.351 248.484 177.745 248.484 174.531C248.484 171.316 245.878 168.71 242.664 168.71Z" fill="black"/>
<path d="M123.594 168.568H118.202C114.988 168.568 112.382 171.174 112.382 174.388C112.382 177.603 114.988 180.209 118.202 180.209H123.594C126.808 180.209 129.414 177.603 129.414 174.388C129.414 171.174 126.808 168.568 123.594 168.568Z" fill="black"/>
<path d="M180.504 123.441C183.718 123.441 186.324 120.835 186.324 117.62V112.228C186.324 109.014 183.718 106.408 180.504 106.408C177.29 106.408 174.684 109.014 174.684 112.228V117.62C174.684 120.835 177.29 123.441 180.504 123.441Z" fill="black"/>
<path d="M180.362 225.478C177.148 225.478 174.542 228.084 174.542 231.299V236.691C174.542 239.905 177.148 242.511 180.362 242.511C183.576 242.511 186.182 239.905 186.182 236.691V231.299C186.182 228.084 183.576 225.478 180.362 225.478Z" fill="black"/>
<path d="M5.82031 204.552C4.28957 204.552 2.78793 205.175 1.70535 206.258C0.622773 207.34 0 208.842 0 210.373C0 211.909 0.622191 213.405 1.70535 214.488C2.78851 215.57 4.28957 216.193 5.82031 216.193C7.35105 216.193 8.8527 215.57 9.93469 214.488C11.0173 213.405 11.6406 211.903 11.6406 210.373C11.6406 208.842 11.0179 207.34 9.93469 206.258C8.8527 205.175 7.35105 204.552 5.82031 204.552Z" fill="black"/>
</g>
<defs>
<clipPath id="clip0_510_2449">
<rect width="298" height="298" fill="white"/>
</clipPath>
</defs>
</svg>
