<?xml version="1.0" standalone="no"?>
<!DOCTYPE svg PUBLIC "-//W3C//DTD SVG 20010904//EN"
 "http://www.w3.org/TR/2001/REC-SVG-20010904/DTD/svg10.dtd">
<svg version="1.0" xmlns="http://www.w3.org/2000/svg"
 width="256.000000pt" height="256.000000pt" viewBox="0 0 256.000000 256.000000"
 preserveAspectRatio="xMidYMid meet">

<g transform="translate(0.000000,256.000000) scale(0.100000,-0.100000)"
fill="#000000" stroke="none">
<path d="M412 2468 c-7 -7 -12 -24 -12 -39 0 -24 -5 -28 -31 -31 -64 -6 -64
-70 -1 -76 26 -3 31 -8 34 -34 6 -63 70 -63 76 0 3 26 8 31 34 34 63 6 63 70
-1 76 -26 3 -31 7 -31 31 0 30 -16 51 -40 51 -9 0 -21 -5 -28 -12z"/>
<path d="M932 2468 c-7 -7 -12 -24 -12 -39 0 -24 -5 -28 -31 -31 -64 -6 -64
-70 -1 -76 26 -3 31 -8 34 -34 6 -63 70 -63 76 0 3 26 8 31 34 34 63 6 63 70
-1 76 -26 3 -31 7 -31 31 0 30 -16 51 -40 51 -9 0 -21 -5 -28 -12z"/>
<path d="M1250 2465 c-26 -32 13 -81 48 -59 34 22 22 74 -18 74 -10 0 -23 -7
-30 -15z"/>
<path d="M1533 2473 c-7 -2 -15 -20 -19 -38 -5 -29 -11 -34 -38 -37 -28 -3
-31 -6 -31 -38 0 -32 3 -35 31 -38 27 -3 33 -8 38 -37 12 -60 76 -60 76 1 0
29 3 34 24 34 41 0 56 11 56 40 0 29 -15 40 -56 40 -21 0 -24 5 -24 34 0 39
-21 54 -57 39z"/>
<path d="M1970 2465 c-26 -32 13 -81 48 -59 34 22 22 74 -18 74 -10 0 -23 -7
-30 -15z"/>
<path d="M2152 2408 c-7 -7 -12 -24 -12 -39 0 -24 -5 -28 -31 -31 -64 -6 -64
-70 -1 -76 26 -3 31 -8 34 -34 6 -63 70 -63 76 0 3 26 8 31 34 34 63 6 63 70
-1 76 -26 3 -31 7 -31 31 0 30 -16 51 -40 51 -9 0 -21 -5 -28 -12z"/>
<path d="M170 2345 c-26 -32 13 -81 48 -59 34 22 22 74 -18 74 -10 0 -23 -7
-30 -15z"/>
<path d="M2410 2305 c-26 -32 13 -81 48 -59 34 22 22 74 -18 74 -10 0 -23 -7
-30 -15z"/>
<path d="M626 2265 c-9 -9 -16 -20 -16 -25 0 -15 32 -41 48 -38 24 5 39 35 26
56 -15 23 -38 26 -58 7z"/>
<path d="M1212 2268 c-25 -25 -6 -68 30 -68 9 0 22 9 28 20 22 40 -26 80 -58
48z"/>
<path d="M1813 2268 c-6 -7 -39 -99 -74 -205 -53 -162 -61 -194 -50 -207 16
-19 45 -21 58 -3 6 6 39 98 74 204 53 162 61 194 50 207 -16 19 -45 21 -58 4z"/>
<path d="M1052 2228 c-18 -18 -16 -28 29 -140 47 -118 55 -130 82 -126 43 6
43 31 3 135 -21 54 -45 108 -53 121 -15 24 -42 29 -61 10z"/>
<path d="M772 2188 c-7 -7 -12 -18 -12 -25 0 -27 180 -283 198 -283 21 0 42
19 42 37 0 8 -41 74 -90 148 -90 134 -109 152 -138 123z"/>
<path d="M1331 2146 c-8 -9 -11 -43 -9 -92 2 -60 7 -79 21 -88 12 -8 22 -8 35
0 13 9 18 28 20 88 3 81 -6 106 -38 106 -10 0 -23 -6 -29 -14z"/>
<path d="M90 2105 c-26 -32 13 -81 48 -59 34 22 22 74 -18 74 -10 0 -23 -7
-30 -15z"/>
<path d="M370 2065 c-26 -32 13 -81 48 -59 34 22 22 74 -18 74 -10 0 -23 -7
-30 -15z"/>
<path d="M532 2068 c-7 -7 -12 -19 -12 -27 0 -21 260 -281 280 -281 20 0 40
20 40 40 0 20 -260 280 -281 280 -8 0 -20 -5 -27 -12z"/>
<path d="M1526 2058 c-8 -13 -22 -40 -32 -61 -21 -45 -11 -72 27 -72 33 0 90
105 73 132 -17 27 -50 28 -68 1z"/>
<path d="M1970 1968 c-90 -113 -100 -134 -78 -156 26 -26 49 -10 138 100 90
113 100 134 78 156 -26 26 -49 10 -138 -100z"/>
<path d="M2290 2065 c-26 -32 13 -81 48 -59 34 22 22 74 -18 74 -10 0 -23 -7
-30 -15z"/>
<path d="M172 1988 c-7 -7 -12 -24 -12 -39 0 -24 -5 -28 -31 -31 -64 -6 -64
-70 -1 -76 26 -3 31 -8 34 -34 6 -63 70 -63 76 0 3 26 8 31 34 34 63 6 63 70
-1 76 -26 3 -31 7 -31 31 0 30 -16 51 -40 51 -9 0 -21 -5 -28 -12z"/>
<path d="M412 1868 c-7 -7 -12 -19 -12 -28 0 -20 220 -240 241 -240 19 0 39
20 39 40 0 20 -220 240 -241 240 -8 0 -20 -5 -27 -12z"/>
<path d="M1200 1864 c-19 -8 -45 -25 -58 -37 -28 -26 -62 -89 -62 -113 0 -15
-5 -13 -28 9 -58 56 -138 53 -187 -5 -23 -28 -27 -39 -23 -80 4 -33 13 -57 29
-74 39 -41 58 -48 80 -28 25 23 24 36 -6 64 -30 28 -32 65 -6 80 11 5 23 10
26 10 3 0 50 -42 103 -93 100 -96 139 -117 214 -117 71 0 119 27 214 120 91
90 109 101 132 78 27 -27 11 -55 -89 -153 -120 -118 -138 -152 -139 -252 l0
-73 -119 0 -118 0 -6 73 c-6 87 -26 140 -69 185 -34 34 -56 40 -76 20 -19 -19
-14 -38 17 -74 17 -18 35 -50 40 -71 7 -23 11 -162 11 -345 l0 -308 -37 -34
c-35 -32 -37 -38 -41 -105 -3 -47 0 -76 8 -86 19 -22 521 -22 540 0 8 10 11
39 8 86 -4 67 -6 73 -41 105 l-37 34 0 164 c0 136 -3 167 -16 180 -17 18 -24
19 -48 10 -14 -5 -16 -31 -16 -180 l0 -174 -40 0 -40 0 0 144 c0 118 -3 147
-16 160 -17 18 -24 19 -48 10 -14 -5 -16 -29 -16 -160 l0 -154 -40 0 -40 0 0
220 0 220 144 0 c180 0 176 -3 176 121 0 59 5 99 14 117 8 15 56 68 106 117
50 50 98 102 106 117 20 39 17 80 -9 119 -41 62 -130 69 -186 15 -15 -14 -30
-26 -33 -26 -3 0 -9 16 -12 35 -20 104 -163 174 -266 129z m141 -87 c122 -82
10 -269 -121 -202 -36 19 -60 62 -60 110 0 93 102 145 181 92z m-101 -1217 l0
-40 -80 0 -80 0 0 28 c0 43 17 52 92 52 l68 0 0 -40z m228 28 c7 -7 12 -25 12
-40 l0 -28 -80 0 -80 0 0 40 0 40 68 0 c40 0 73 -5 80 -12z"/>
<path d="M2093 1769 c-76 -63 -133 -118 -133 -128 0 -21 19 -41 40 -41 24 0
280 218 280 238 0 22 -19 42 -39 42 -9 0 -76 -50 -148 -111z"/>
<path d="M252 1748 c-22 -22 -13 -43 41 -96 54 -53 74 -61 95 -40 22 22 13 43
-41 96 -54 53 -74 61 -95 40z"/>
<path d="M2315 1652 c-109 -67 -129 -89 -105 -117 20 -24 36 -18 152 51 112
68 129 85 111 113 -19 30 -48 21 -158 -47z"/>
<path d="M92 1668 c-23 -23 -12 -44 61 -116 72 -72 93 -82 115 -60 23 23 12
44 -61 116 -72 72 -93 82 -115 60z"/>
<path d="M445 1501 c-54 -25 -84 -60 -105 -120 l-17 -50 -28 29 c-16 17 -44
34 -63 40 -98 27 -185 -79 -138 -168 8 -15 56 -67 106 -117 135 -132 130 -110
130 -485 l0 -315 -30 -17 c-37 -21 -60 -72 -60 -133 0 -89 -14 -85 278 -85
187 0 261 3 270 12 17 17 15 133 -3 168 -8 16 -24 34 -35 40 -19 10 -20 21
-20 176 0 169 -7 204 -38 204 -38 0 -42 -19 -42 -192 l0 -168 -40 0 -40 0 0
141 c0 144 -7 179 -38 179 -37 0 -42 -19 -42 -172 l0 -148 -40 0 -40 0 0 220
0 220 143 0 c78 0 149 5 157 10 11 7 16 36 20 119 5 105 6 111 38 149 39 50
42 79 6 88 -59 15 -124 -96 -124 -213 l0 -73 -119 0 -118 0 -6 74 c-7 100 -30
140 -148 261 -54 56 -99 109 -99 118 0 14 28 37 45 37 4 0 48 -40 98 -88 108
-104 157 -128 241 -119 74 7 107 27 208 124 75 72 90 83 107 74 30 -17 32 -38
6 -70 -31 -35 -32 -67 -4 -82 18 -9 26 -6 51 18 40 38 50 59 50 104 -2 101
-108 144 -198 80 l-42 -29 -7 34 c-3 19 -20 51 -38 71 -61 69 -153 91 -232 54z
m143 -81 c19 -12 40 -37 49 -58 54 -129 -147 -227 -212 -102 -58 112 57 224
163 160z m-108 -1220 l0 -40 -80 0 c-74 0 -80 2 -80 21 0 48 16 59 90 59 l70
0 0 -40z m228 28 c7 -7 12 -25 12 -40 l0 -28 -80 0 -80 0 0 40 0 40 68 0 c40
0 73 -5 80 -12z"/>
<path d="M1960 1504 c-62 -27 -120 -96 -120 -143 0 -19 -3 -18 -44 10 -86 61
-189 26 -197 -66 -4 -51 4 -70 40 -107 34 -34 43 -38 60 -28 28 14 26 46 -4
81 -26 32 -24 53 6 70 17 9 32 -2 107 -74 101 -97 134 -117 208 -124 84 -9
133 15 241 119 50 48 94 88 98 88 17 0 45 -23 45 -37 0 -9 -45 -62 -99 -118
-118 -121 -141 -161 -148 -261 l-6 -74 -118 0 -119 0 0 73 c0 80 -23 142 -67
190 -29 29 -52 34 -71 15 -19 -19 -14 -36 21 -80 l32 -40 3 -343 c3 -337 2
-344 -18 -355 -11 -6 -27 -24 -35 -40 -18 -35 -20 -151 -3 -168 9 -9 83 -12
270 -12 292 0 278 -4 278 85 0 61 -23 112 -60 133 l-30 17 0 170 c0 176 -4
195 -42 195 -31 0 -38 -35 -38 -199 l0 -161 -40 0 -40 0 0 148 c0 153 -5 172
-42 172 -31 0 -38 -35 -38 -179 l0 -141 -40 0 -40 0 0 220 0 220 148 0 c102 0
152 4 160 12 7 7 12 44 12 92 1 108 17 141 130 251 50 50 98 102 106 117 47
89 -40 195 -138 168 -19 -6 -47 -23 -63 -40 l-28 -29 -17 50 c-10 27 -28 61
-41 76 -53 57 -148 78 -219 47z m130 -79 c16 -9 36 -29 45 -45 59 -113 -62
-227 -166 -157 -48 32 -67 89 -46 139 28 67 104 95 167 63z m-90 -1225 l0 -40
-80 0 -80 0 0 28 c0 43 17 52 92 52 l68 0 0 -40z m230 21 c5 -11 10 -29 10
-40 0 -19 -6 -21 -80 -21 l-80 0 0 40 0 40 70 0 c58 0 71 -3 80 -19z"/>
</g>
</svg>
