<svg width="298" height="298" viewBox="0 0 298 298" fill="none" xmlns="http://www.w3.org/2000/svg">
<g clip-path="url(#clip0_538_8395)">
<path d="M214.993 80.3284V107.934C214.993 115.462 208.89 121.565 201.362 121.565H38.1166C30.588 121.565 24.4854 115.462 24.4854 107.934V80.3284C24.4854 72.8056 30.588 66.703 38.1166 66.703H201.361C208.89 66.703 214.993 72.8056 214.993 80.3284Z" fill="#F4A408"/>
<path d="M190.508 135.195V162.8C190.508 170.328 184.405 176.431 176.876 176.431H13.6312C6.1026 176.431 0 170.328 0 162.8V135.195C0 127.672 6.1026 121.569 13.6312 121.569H176.876C184.405 121.569 190.508 127.672 190.508 135.195Z" fill="#F4A408"/>
<path d="M199.69 190.06V217.665C199.69 225.193 193.587 231.296 186.058 231.296H22.8133C15.2847 231.296 9.18211 225.193 9.18211 217.665V190.06C9.18211 182.537 15.2847 176.434 22.8133 176.434H186.058C193.587 176.434 199.69 182.537 199.69 190.06Z" fill="#F4A408"/>
<path d="M190.508 244.926V272.531C190.508 280.06 184.405 286.162 176.876 286.162H13.6312C6.1026 286.162 0 280.06 0 272.531V244.926C0 237.403 6.1026 231.301 13.6312 231.301H176.876C184.405 231.301 190.508 237.403 190.508 244.926Z" fill="#F4A408"/>
<path d="M190.509 244.926V263.962C190.509 271.001 185.171 276.798 178.322 277.52C177.845 277.569 177.367 277.593 176.877 277.593H47.1811C39.6584 277.593 33.5558 271.491 33.5558 263.962V244.926C33.5558 237.404 39.6584 231.301 47.1811 231.301H176.877C184.406 231.301 190.509 237.404 190.509 244.926Z" fill="#FFB800"/>
<path d="M190.509 244.926V263.962C190.509 271.001 185.171 276.798 178.322 277.52C177.845 277.569 177.367 277.593 176.877 277.593H47.1811C39.6584 277.593 33.5558 271.491 33.5558 263.962V244.926C33.5558 237.404 39.6584 231.301 47.1811 231.301H176.877C184.406 231.301 190.509 237.404 190.509 244.926Z" fill="#FFB800"/>
<path d="M190.508 190.059V209.095C190.508 216.134 185.171 221.931 178.321 222.653C177.844 222.702 177.366 222.726 176.877 222.726H47.1806C39.6578 222.726 33.5552 216.624 33.5552 209.095V190.059C33.5552 182.536 39.6578 176.434 47.1806 176.434H176.877C184.406 176.433 190.508 182.536 190.508 190.059Z" fill="#FFB800"/>
<path d="M190.508 135.197V154.233C190.508 161.272 185.171 167.069 178.321 167.791C177.844 167.84 177.366 167.864 176.877 167.864H47.1806C39.6578 167.864 33.5552 161.762 33.5552 154.233V135.197C33.5552 127.675 39.6578 121.572 47.1806 121.572H176.877C184.406 121.572 190.508 127.675 190.508 135.197Z" fill="#FFB800"/>
<path d="M214.992 80.3295V99.3654C214.992 106.404 209.655 112.201 202.805 112.923C202.328 112.972 201.85 112.997 201.361 112.997H71.6642C64.1415 112.997 58.0389 106.894 58.0389 99.3654V80.3295C58.0389 72.8067 64.1415 66.7041 71.6642 66.7041H201.361C208.89 66.7041 214.992 72.8067 214.992 80.3295Z" fill="#FFB800"/>
<path d="M190.508 244.927V272.532C190.508 279.571 185.171 285.368 178.321 286.09C177.079 286.139 175.836 286.163 174.593 286.163C161.422 286.163 148.249 283.452 135.983 278.017C127.75 274.375 119.94 269.503 112.803 263.412C110.893 261.784 109.045 260.07 107.239 258.271C99.178 250.21 92.867 241.065 88.301 231.302H176.877C184.405 231.302 190.508 237.404 190.508 244.927Z" fill="#F4A408"/>
<path d="M190.508 190.059V217.664C190.508 225.193 184.405 231.295 176.877 231.295H97.4703C89.4091 214.065 86.7894 194.913 89.6169 176.434H176.877C184.405 176.433 190.508 182.536 190.508 190.059Z" fill="#F4A408"/>
<path d="M190.508 25.4621V53.0673C190.508 60.5959 184.405 66.6985 176.876 66.6985H13.6312C6.1026 66.6991 0 60.5965 0 53.0679V25.4621C0 17.9394 6.1026 11.8368 13.6312 11.8368H176.876C184.405 11.8374 190.508 17.94 190.508 25.4621Z" fill="#F4A408"/>
<path d="M190.509 25.4609V44.4968C190.509 51.5359 185.171 57.3324 178.322 58.0547C177.845 58.1036 177.367 58.128 176.877 58.128H47.1811C39.6584 58.128 33.5558 52.0254 33.5558 44.4968V25.4609C33.5558 17.9382 39.6584 11.8356 47.1811 11.8356H176.877C184.406 11.8362 190.509 17.9388 190.509 25.4609Z" fill="#FFB800"/>
<path d="M168.098 11.8362H148.107V58.1286H168.098V11.8362Z" fill="#F9C662"/>
<path d="M133.417 11.8362H123.422V58.1286H133.417V11.8362Z" fill="#F9C662"/>
<path d="M192.181 66.7059H172.187V121.574H192.181V66.7059Z" fill="#F9C662"/>
<path d="M157.493 66.7059H147.496V121.574H157.493V66.7059Z" fill="#F9C662"/>
<path d="M214.992 99.0167V107.935C214.992 115.464 208.889 121.566 201.36 121.566H124.598C149.504 98.0854 183.965 90.5697 214.992 99.0167Z" fill="#F4A408"/>
<path d="M190.508 135.197V162.803C190.508 170.331 184.405 176.434 176.877 176.434H80.4354C83.3915 157.08 92.3286 138.466 107.233 123.562C107.912 122.882 108.598 122.221 109.29 121.572H176.877C184.405 121.572 190.508 127.675 190.508 135.197Z" fill="#F4A408"/>
<path d="M270.104 258.267C241.451 286.914 199.095 293.5 164.141 278.015C155.909 274.372 148.095 269.505 140.961 263.413C139.051 261.786 137.198 260.068 135.393 258.267C98.1966 221.066 98.1966 160.758 135.393 123.557C172.594 86.3604 232.902 86.3604 270.104 123.557C271.908 125.362 273.622 127.215 275.249 129.125C281.341 136.253 286.208 144.072 289.851 152.305C305.336 187.254 298.751 229.616 270.104 258.267Z" fill="#FFDE50"/>
<path d="M289.851 152.305L164.141 278.015C155.909 274.372 148.095 269.505 140.961 263.413L275.249 129.125C281.34 136.253 286.208 144.073 289.851 152.305Z" fill="#FFEC9D"/>
<path d="M270.103 190.912C270.103 228.111 239.947 258.267 202.749 258.267C181.751 258.267 163 248.662 150.645 233.6C141.111 221.981 135.394 207.114 135.394 190.912C135.394 153.714 165.55 123.558 202.749 123.558C218.953 123.558 233.821 129.283 245.44 138.818C260.497 151.167 270.103 169.919 270.103 190.912Z" fill="#FFB800"/>
<path d="M245.44 138.817L150.653 233.604L150.645 233.6C147.862 230.209 145.405 226.54 143.323 222.642C140.95 218.213 139.063 213.493 137.725 208.54C136.205 202.92 135.394 197.009 135.394 190.912C135.394 153.713 165.55 123.557 202.748 123.557C208.849 123.557 214.761 124.368 220.376 125.888C225.329 127.227 230.049 129.119 234.479 131.492C238.376 133.574 242.046 136.035 245.44 138.817Z" fill="#FFBD00"/>
<path d="M234.479 131.492L143.324 222.643C140.951 218.214 139.064 213.493 137.725 208.54L220.377 125.888C225.329 127.227 230.05 129.119 234.479 131.492Z" fill="#FFBD00"/>
<path d="M207.339 186.688V161.407C214.032 162.967 218.93 167.842 218.93 173.602C218.93 176.138 220.985 178.193 223.521 178.193C226.057 178.193 228.111 176.138 228.111 173.602C228.111 162.879 219.139 153.939 207.338 152.068V149.368C207.338 146.832 205.284 144.777 202.748 144.777C200.212 144.777 198.157 146.832 198.157 149.368V152.068C186.357 153.939 177.384 162.88 177.384 173.602C177.384 184.324 186.357 193.266 198.157 195.137V220.418C191.464 218.858 186.566 213.983 186.566 208.223C186.566 205.687 184.511 203.632 181.975 203.632C179.439 203.632 177.385 205.687 177.385 208.223C177.385 218.945 186.357 227.886 198.158 229.757V232.457C198.158 234.993 200.213 237.048 202.748 237.048C205.284 237.048 207.339 234.993 207.339 232.457V229.757C219.14 227.886 228.112 218.945 228.112 208.223C228.112 197.5 219.14 188.56 207.339 186.688ZM186.566 173.602C186.566 167.841 191.464 162.966 198.158 161.406V185.797C191.465 184.238 186.566 179.362 186.566 173.602ZM207.339 220.418V196.027C214.032 197.587 218.93 202.462 218.93 208.223C218.93 213.983 214.032 218.858 207.339 220.418Z" fill="#FFE785"/>
<path d="M202.749 262.858C181.115 262.858 160.831 253.255 147.095 236.512C136.59 223.708 130.803 207.513 130.803 190.912C130.803 151.242 163.078 118.967 202.749 118.967C219.345 118.967 235.54 124.756 248.352 135.268C265.093 148.999 274.693 169.281 274.693 190.912C274.693 230.583 242.419 262.858 202.749 262.858ZM202.749 128.148C168.14 128.148 139.985 156.304 139.985 190.912C139.985 205.394 145.031 219.521 154.194 230.688C166.178 245.297 183.875 253.676 202.749 253.676C237.356 253.676 265.512 225.521 265.512 190.912C265.512 172.042 257.135 154.347 242.529 142.367C231.355 133.198 217.227 128.148 202.749 128.148Z" fill="#E0A33F"/>
</g>
<defs>
<clipPath id="clip0_538_8395">
<rect width="298" height="298" fill="white"/>
</clipPath>
</defs>
</svg>
