<svg width="298" height="298" viewBox="0 0 298 298" fill="none" xmlns="http://www.w3.org/2000/svg">
<path d="M298 149C298 231.291 231.291 298 149 298C105.62 298 66.5695 279.463 39.3421 249.876C32.1901 242.11 25.8591 233.577 20.4708 224.424C7.46216 202.299 0 176.519 0 149C0 66.7094 66.7094 0 149 0C176.525 0 202.305 7.46216 224.424 20.4769C233.577 25.8591 242.104 32.1901 249.87 39.3482C279.457 66.5635 298 105.62 298 149Z" fill="#C9AC00"/>
<path d="M298 149C298 229.436 234.271 294.983 154.546 297.897C74.8223 294.983 11.0929 229.436 11.0929 149C11.0929 68.5643 74.8223 3.0165 154.546 0.103394C234.271 3.0165 298 68.5643 298 149Z" fill="#FFDE50"/>
<path d="M249.87 39.3481L39.3421 249.876C32.1901 242.11 25.8591 233.577 20.4708 224.424L224.424 20.4768C233.577 25.8591 242.104 32.19 249.87 39.3481Z" fill="#FFE785"/>
<path d="M287.722 94.5268L94.5208 287.728C80.8432 282.352 68.1508 275.011 56.7964 266.053L266.053 56.7964C275.011 68.1508 282.352 80.8432 287.722 94.5268Z" fill="#FFE785"/>
<path d="M264.782 149C264.782 212.942 212.942 264.782 149 264.782C126.729 264.782 105.93 258.494 88.2749 247.595C80.5817 242.852 73.4905 237.226 67.1291 230.865C62.4523 226.194 58.1708 221.116 54.3455 215.697C49.0788 208.235 44.6696 200.122 41.27 191.505C36.2344 178.764 33.4003 164.91 33.2301 150.423C33.2179 149.949 33.2179 149.474 33.2179 149C33.2179 85.0577 85.0517 33.2179 149 33.2179C149.474 33.2179 149.955 33.2179 150.429 33.2301C164.916 33.4003 178.764 36.2405 191.505 41.27C200.122 44.6757 208.235 49.0788 215.697 54.3455C221.116 58.1769 226.188 62.4523 230.865 67.1291C237.226 73.4844 242.852 80.5817 247.595 88.2749C258.494 105.93 264.782 126.729 264.782 149Z" fill="#FFA600"/>
<path d="M230.865 67.1291L67.1291 230.865C62.4523 226.194 58.1708 221.116 54.3455 215.697C49.0788 208.235 44.6696 200.122 41.27 191.505C36.2344 178.764 33.4003 164.91 33.2301 150.423C33.2179 149.949 33.2179 149.474 33.2179 149C33.2179 85.0577 85.0517 33.2179 149 33.2179C149.474 33.2179 149.955 33.2179 150.429 33.2301C164.916 33.4003 178.764 36.2405 191.505 41.27C200.122 44.6757 208.235 49.0788 215.697 54.3455C221.116 58.1769 226.188 62.4523 230.865 67.1291Z" fill="#FFBD00"/>
<path d="M264.779 149C264.779 212.942 212.939 264.782 148.997 264.782C146.802 264.782 144.624 264.721 142.459 264.6C203.361 261.212 251.697 210.747 251.697 149C251.697 87.2532 203.361 36.7878 142.459 33.4003C144.624 33.2787 146.802 33.2179 148.997 33.2179C212.939 33.2179 264.779 85.0577 264.779 149Z" fill="#F49008"/>
<path d="M145.186 140.103V93.2132C152.493 97.2447 157.456 105.026 157.456 113.945C157.456 120.238 162.557 125.338 168.849 125.338C175.141 125.338 180.241 120.238 180.241 113.945C180.241 92.2639 165.307 74.008 145.186 68.9153V59.642C145.186 53.3499 140.085 48.2493 133.793 48.2493C127.501 48.2493 122.4 53.3499 122.4 59.642V68.9147C102.279 74.008 87.3444 92.2633 87.3444 113.945C87.3444 126.891 91.1467 136.986 98.9682 144.808C104.671 150.511 112.246 154.731 122.4 157.824V204.788C115.092 200.757 110.13 192.976 110.13 184.056C110.13 177.764 105.029 172.664 98.7371 172.664C92.4451 172.664 87.3444 177.764 87.3444 184.056C87.3444 205.738 102.279 223.993 122.4 229.087V238.359C122.4 244.651 127.501 249.752 133.793 249.752C140.085 249.752 145.186 244.651 145.186 238.359V229.087C165.307 223.993 180.241 205.739 180.241 184.056C180.241 171.29 176.276 160.852 168.456 153.032C162.773 147.348 155.104 143.087 145.186 140.103ZM115.08 128.696C112.775 126.392 110.13 122.632 110.13 113.945C110.13 105.025 115.093 97.2447 122.401 93.2126V133.544C119.328 132.12 116.895 130.512 115.08 128.696ZM145.186 204.788V164.332C155.087 168.944 157.456 175.54 157.456 184.056C157.456 192.976 152.493 200.757 145.186 204.788Z" fill="#F49008"/>
<path d="M160.391 140.103V93.2132C167.699 97.2447 172.661 105.026 172.661 113.945C172.661 120.238 177.762 125.338 184.054 125.338C190.346 125.338 195.447 120.238 195.447 113.945C195.447 92.2639 180.512 74.008 160.391 68.9153V59.642C160.391 53.3499 155.29 48.2493 148.998 48.2493C142.706 48.2493 137.605 53.3499 137.605 59.642V68.9147C117.484 74.008 102.55 92.2633 102.55 113.945C102.55 126.891 106.352 136.986 114.174 144.808C119.876 150.511 127.452 154.731 137.605 157.824V204.788C130.298 200.757 125.335 192.976 125.335 184.056C125.335 177.764 120.234 172.664 113.942 172.664C107.65 172.664 102.55 177.764 102.55 184.056C102.55 205.738 117.484 223.993 137.605 229.087V238.359C137.605 244.651 142.706 249.752 148.998 249.752C155.29 249.752 160.391 244.651 160.391 238.359V229.087C180.512 223.993 195.447 205.739 195.447 184.056C195.447 171.29 191.481 160.852 183.662 153.032C177.978 147.348 170.308 143.087 160.391 140.103ZM130.285 128.696C127.98 126.392 125.335 122.632 125.335 113.945C125.335 105.025 130.298 97.2447 137.605 93.2126V133.544C134.533 132.12 132.1 130.512 130.285 128.696ZM160.391 204.788V164.332C170.292 168.944 172.661 175.54 172.661 184.056C172.661 192.976 167.699 200.757 160.391 204.788Z" fill="#FFE785"/>
</svg>
