<svg width="298" height="298" viewBox="0 0 298 298" fill="none" xmlns="http://www.w3.org/2000/svg">
<path d="M47.7141 187.211L58.8226 176.102L121.833 239.112L110.724 250.221L47.7141 187.211Z" fill="white"/>
<path d="M175.66 241.373L238.67 178.363L249.779 189.472L186.769 252.482L175.66 241.373Z" fill="white"/>
<path d="M44.1436 229.182L64.2435 209.089L88.8071 233.661L68.7071 253.754L44.1436 229.182Z" fill="#0F7CFC"/>
<path d="M24.1178 291.207C14.507 291.043 6.84851 283.119 7.0131 273.508C7.09051 268.988 8.92304 264.675 12.1237 261.482L23.4659 250.14L48.0409 274.715L36.4379 285.796C33.2316 289.191 28.7867 291.142 24.1178 291.207Z" fill="#0F7CFC"/>
<path d="M23.1719 250.16L44.1902 229.142L68.7578 253.71L47.7395 274.728L23.1719 250.16Z" fill="#0F7CFC"/>
<path d="M172.611 172.504L196.077 151.514L227.041 186.063L206.572 206.466L172.611 172.504Z" fill="#C4BDB3"/>
<path d="M9.84229 69.1195L6.71338 6.60657L69.2264 9.73548L149.014 98.9094L101.95 151.514L9.84229 69.1195Z" fill="#C4BDB3"/>
<path d="M209.131 233.579L233.698 209.011L253.795 229.108L229.228 253.675L209.131 233.579Z" fill="#0F7CFC"/>
<path d="M273.909 291.076C269.264 291.024 264.83 289.124 261.589 285.796L250.247 274.454L274.822 249.879L285.903 261.482C292.502 268.244 292.502 279.035 285.903 285.796C282.742 289.046 278.441 290.94 273.909 291.076Z" fill="#0F7CFC"/>
<path d="M229.281 253.763L253.848 229.195L274.866 250.213L250.299 274.781L229.281 253.763Z" fill="#0F7CFC"/>
<path d="M149.013 193.624L172.611 172.504L206.572 206.466L186.169 226.934L149.013 193.624Z" fill="#C4BDB3"/>
<path d="M70.9863 186.063L228.801 9.73548L291.314 6.60657L288.185 69.1195L111.858 226.934L70.9863 186.063Z" fill="#C4BDB3"/>
<path d="M279.385 245.577L258.46 224.522L242.946 209.008L256.7 195.254C259.228 192.711 259.228 188.605 256.7 186.062L241.838 171.2C239.295 168.673 235.189 168.673 232.647 171.2L227.301 176.545L205.334 151.97L292.422 74.0084C293.722 72.8375 294.497 71.1932 294.573 69.4454L297.702 6.93247C297.802 5.08772 297.115 3.28697 295.811 1.97837C294.503 0.674655 292.702 -0.0122383 290.857 0.0879845L228.344 3.15171C226.597 3.22749 224.952 4.00238 223.781 5.30283L149.013 89.1315L74.1152 5.49839C72.9443 4.19794 71.3 3.42304 69.5522 3.34726L7.03921 0.283541C5.19446 0.183318 3.39371 0.870212 2.08511 2.17392C0.781396 3.48252 0.0945031 5.28328 0.194726 7.12803L3.32363 69.641C3.39941 71.3888 4.17431 73.0331 5.47476 74.204L92.6931 152.427L70.7907 176.611L65.4455 171.265C62.9033 168.738 58.7966 168.738 56.2543 171.265L41.392 186.128C38.8644 188.67 38.8644 192.777 41.392 195.319L55.1462 209.073L39.5668 224.522L6.97403 257.115C-2.34996 266.475 -2.32062 281.623 7.04003 290.947C11.5077 295.397 17.5512 297.903 23.8571 297.921C30.1899 297.942 36.2684 295.431 40.7402 290.946L88.5864 243.1L102.341 256.854C104.883 259.382 108.989 259.382 111.532 256.854L126.394 241.992C128.922 239.449 128.922 235.343 126.394 232.801L121.31 227.129L149.013 202.424L176.717 227.129L171.372 232.475C168.845 235.017 168.845 239.124 171.372 241.666L186.234 256.528C188.777 259.056 192.883 259.056 195.426 256.528L209.18 242.774L224.694 258.288L245.684 279.278L257.026 290.62C266.294 300.037 281.44 300.158 290.857 290.89C300.274 281.622 300.395 266.475 291.127 257.059C291.037 256.968 290.948 256.878 290.857 256.789L279.385 245.577ZM217.915 185.802L206.442 197.274L181.932 172.765L195.426 160.705L217.915 185.802ZM15.8393 66.0558L13.2318 13.451L65.8366 16.0585L139.887 98.8441L124.764 115.727L97.3864 88.3493C94.6519 86.0075 90.5371 86.3261 88.1953 89.0606C86.1053 91.501 86.1053 95.1 88.1953 97.5404L116.421 125.505L101.428 142.388L15.8393 66.0558ZM31.4186 281.168C29.3832 283.217 26.6144 284.366 23.7267 284.362C17.7313 283.917 13.231 278.696 13.6767 272.701C13.8544 270.303 14.8216 268.032 16.4259 266.241L22.9445 259.722L38.1979 274.78L31.4186 281.168ZM47.3239 265.263L32.3312 250.205L44.1298 238.407L59.5136 253.79L47.3239 265.263ZM68.3788 244.208L52.9951 228.824L64.2722 218.264L79.656 233.648L68.3788 244.208ZM106.838 242.448L93.1494 228.759L68.5744 204.184L55.1462 190.691L60.7521 185.085L112.901 237.233L106.838 242.448ZM111.727 217.612L100.255 206.14L209.115 97.2797C211.849 94.9379 212.168 90.8231 209.826 88.0885C207.484 85.354 203.369 85.0354 200.635 87.3772C200.38 87.5956 200.142 87.8335 199.923 88.0885L91.0634 196.948L79.5908 185.476L106.317 155.621L231.864 16.1236L284.469 13.5162L281.862 66.121L191.775 146.625L111.727 217.612ZM158.4 193.298L172.415 181.499L197.381 206.466L185.908 217.938L158.4 193.298ZM204.03 228.694L190.797 242.774L185.191 237.168L237.34 185.019L242.946 190.625L229.192 204.38L204.03 228.694ZM217.849 233.322L233.755 218.264L244.641 229.15L229.257 244.534L217.849 233.322ZM249.79 265.263L237.992 253.464L253.376 238.081L265.174 249.879L249.79 265.263ZM281.079 281.168C276.773 285.274 270.002 285.274 265.696 281.168L259.177 274.65L274.887 259.722L281.405 266.241C285.618 270.422 285.704 277.207 281.601 281.494L281.079 281.168Z" fill="#3A302B"/>
</svg>
