<svg width="84" height="97" viewBox="0 0 84 97" fill="none" xmlns="http://www.w3.org/2000/svg">
    <path d="M39.5211 95.6903L3.61798 74.6836C2.75718 74.1781 2.04247 73.4525 1.54536 72.5793C1.04825 71.7061 0.786152 70.7159 0.785291 69.7079V27.7115C0.783212 26.7006 1.04391 25.7069 1.54117 24.8305C2.03843 23.9541 2.75472 23.2258 3.61798 22.7188L39.5211 1.7291C40.3849 1.22383 41.3647 0.957825 42.3621 0.957825C43.3596 0.957825 44.3394 1.22383 45.2032 1.7291L81.0895 22.7358C81.9528 23.2427 82.6691 23.9711 83.1663 24.8475C83.6636 25.7239 83.9243 26.7176 83.9222 27.7285V69.7079C83.9243 70.7188 83.6636 71.7124 83.1663 72.5889C82.6691 73.4653 81.9528 74.1936 81.0895 74.7006L45.2032 95.6903C44.3394 96.1956 43.3596 96.4616 42.3621 96.4616C41.3647 96.4616 40.3849 96.1956 39.5211 95.6903Z" fill="white"/>
    <path d="M33.9814 70.0738C32.8046 70.0738 31.851 69.106 31.851 67.9137V30.3623C31.851 29.1718 32.299 28.3851 33.3161 27.789L48.7459 18.7531C49.7639 18.157 50.6607 18.157 51.6786 18.7531L58.9932 23.0369C60.0103 23.633 60.4583 24.4197 60.4583 25.6102V67.9134C60.4583 69.1057 59.5039 70.0727 58.3271 70.0727C57.1503 70.0727 56.1959 69.1057 56.1959 67.9134V26.3864L50.2117 22.8817L36.1136 31.1385V67.9123C36.1136 69.1046 35.1591 70.0716 33.9824 70.0716L33.9814 70.0738ZM33.9822 79.578C33.5811 79.578 33.2058 79.4679 32.8848 79.2723L25.2016 74.7726C24.1844 74.1764 23.7365 73.3898 23.7365 72.1992V25.6128C23.7365 24.4222 24.1845 23.6356 25.2016 23.0394L32.8848 18.5397C33.2058 18.3441 33.5811 18.2315 33.9822 18.2315C35.159 18.2315 36.1134 19.1985 36.1134 20.3908C36.1134 21.2036 35.6697 21.9116 35.0145 22.2799L27.9982 26.3884V71.4211L35.0145 75.5296C35.6697 75.8979 36.1134 76.6058 36.1134 77.4187C36.1134 78.611 35.159 79.578 33.9822 79.578ZM42.0982 79.5805C40.9214 79.5805 39.9678 78.6125 39.9678 77.4202V54.127C39.9678 52.9365 40.4158 52.1498 41.4329 51.5537L49.1379 47.0353C49.4738 46.8388 49.8399 46.7457 50.2017 46.7457C50.938 46.7457 51.6543 47.1327 52.0488 47.8254C52.2427 48.1657 52.3346 48.5366 52.3346 48.9032L52.3447 72.6678C52.3447 73.8601 51.3902 74.8271 50.2134 74.8271C49.0367 74.8271 48.0822 73.8601 48.0822 72.6678V52.6474L44.2293 54.904V77.421C44.2293 78.6133 43.2748 79.5803 42.0981 79.5803L42.0982 79.5805ZM42.0982 46.3121C40.9214 46.3121 39.9678 45.3441 39.9678 44.1518V35.1159C39.9678 33.9254 40.4166 33.1396 41.4337 32.5426L49.1387 28.0242C49.4747 27.8278 49.8407 27.7347 50.2026 27.7347C50.9389 27.7347 51.6552 28.1217 52.0496 28.8143C52.2436 29.1547 52.3355 29.5255 52.3355 29.8921L52.3455 39.3997C52.3455 40.5919 51.3902 41.5589 50.2134 41.5589C49.0367 41.5589 48.0822 40.5919 48.0822 39.3997V33.6366L44.2293 35.8932V44.1526C44.2293 45.3448 43.2748 46.3119 42.0981 46.3119L42.0982 46.3121Z" fill="#111111"/>
</svg>
