<svg width="298" height="298" viewBox="0 0 298 298" fill="none" xmlns="http://www.w3.org/2000/svg">
<path d="M158.713 175.41C159.751 170.875 158.545 165.93 155.02 162.405L144.753 152.138C144.986 151.119 145.14 150.071 145.14 149C145.14 145.27 143.687 141.759 141.052 139.124L135.595 133.667C132.21 130.282 127.218 129.099 122.674 130.058L112.313 119.698C106.866 114.25 98.0094 114.25 92.5616 119.698L76.721 135.539C75.2403 135.222 73.7224 135.031 72.1718 135.031C66.426 135.031 61.0201 137.266 56.9552 141.336L39.4105 158.881C35.015 163.276 32.5937 169.12 32.5937 175.34V207.604L6.02051 234.177L12.6044 240.761L40.5419 212.823C41.4173 211.952 41.9062 210.765 41.9062 209.531V175.34C41.9062 171.662 43.3962 168.067 45.9944 165.464L63.5392 147.92C68.1488 143.31 76.1902 143.31 80.7999 147.92L119.135 186.25L116.974 188.41C111.526 193.858 102.666 193.858 97.2178 188.41L77.7966 168.989C75.976 167.169 73.0332 167.169 71.2127 168.989C70.3 169.897 69.8437 171.089 69.8437 172.281C69.8437 173.473 70.3 174.665 71.208 175.573C84.7949 189.16 84.7949 211.273 71.208 224.864L77.7919 231.448C87.7982 221.447 91.9889 207.794 90.3685 194.734L90.6292 194.994C95.0713 199.441 100.882 201.676 106.717 201.769L111.187 206.239C113.724 208.777 117.007 210.085 120.341 210.258C120.513 213.587 121.817 216.874 124.359 219.412L129.816 224.869C130.962 226.014 132.289 226.885 133.709 227.56L113.92 247.349C111.312 249.947 107.713 251.437 104.035 251.437H88.4687C87.2348 251.437 86.0475 251.926 85.1767 252.802L52.583 285.395L59.1669 291.979L90.3964 260.75H104.035C110.251 260.75 116.099 258.329 120.494 253.933L147.636 226.792L147.449 226.606C148.204 226.103 148.912 225.521 149.568 224.864L168.994 205.438C171.629 202.803 173.082 199.292 173.082 195.562C173.082 191.833 171.629 188.322 168.994 185.687L158.713 175.41ZM129.011 140.251L134.468 145.708C136.284 147.524 136.284 150.476 134.468 152.292L116.406 170.353L104.365 158.312L122.427 140.251C124.243 138.435 127.195 138.435 129.011 140.251V140.251ZM85.5818 139.846L99.1455 126.282C100.961 124.466 103.914 124.466 105.729 126.282L114.479 135.031L97.7812 151.728L87.3885 141.336C86.8297 140.772 86.1872 140.339 85.5818 139.846V139.846ZM117.407 199.292C119.614 198.198 121.724 196.834 123.558 194.999L129.011 189.547C130.831 187.726 130.831 184.783 129.011 182.963L122.99 176.937L139.687 160.24L148.437 168.989C149.312 169.869 149.796 171.038 149.796 172.281C149.796 173.524 149.312 174.693 148.437 175.573L127.083 196.927L124.354 199.655C122.539 201.471 119.586 201.471 117.77 199.655L117.407 199.292ZM162.405 198.854L142.979 218.28C141.164 220.096 138.211 220.096 136.395 218.28L130.938 212.823C130.063 211.943 129.579 210.774 129.579 209.531C129.579 208.288 130.063 207.119 130.938 206.239L133.667 203.511L153.656 183.521L162.405 192.27C164.221 194.086 164.221 197.038 162.405 198.854V198.854Z" fill="black"/>
<path d="M221.633 157.009C223.104 157.325 224.608 157.512 226.145 157.512C231.872 157.512 237.259 155.272 241.31 151.198L258.762 133.658C263.139 129.262 265.55 123.419 265.55 117.202V84.9765L291.942 59.2042L285.437 52.5411L257.64 79.6824C256.746 80.5577 256.238 81.759 256.238 83.0116V117.202C256.238 120.937 254.79 124.452 252.164 127.092L234.707 144.632C230.13 149.237 222.164 149.237 217.582 144.632L179.433 106.297L181.594 104.123C184.21 101.492 187.698 100.039 191.395 100.039C195.092 100.039 198.575 101.492 201.196 104.123L220.525 123.544C222.336 125.369 225.283 125.374 227.108 123.563C228.934 121.747 228.943 118.799 227.127 116.979C213.601 103.383 213.601 81.2655 227.127 67.6739L220.525 61.1039C210.583 71.0962 206.411 84.7251 208.009 97.7672L207.799 97.553C203.511 93.2413 197.83 90.862 191.777 90.7642L187.349 86.3129C184.9 83.8544 181.603 82.5879 178.246 82.4156C178.101 79.0444 176.798 75.7106 174.241 73.1403L168.812 67.6878C167.811 66.6821 166.638 65.9278 165.409 65.3038L184.63 45.9851C187.218 43.3915 190.79 41.9062 194.44 41.9062H209.932C211.17 41.9062 212.357 41.4126 213.233 40.5326L241.031 12.5951L234.428 6.02979L207.995 32.5937H194.44C188.331 32.5937 182.353 35.0801 178.036 39.4198L152.031 65.5599C150.983 66.1466 149.982 66.8218 149.116 67.6925L129.793 87.1137C124.378 92.5569 124.378 101.413 129.793 106.852L140.023 117.133C138.989 121.663 140.186 126.613 143.692 130.133L153.922 140.414C152.888 144.944 154.085 149.894 157.591 153.414L163.02 158.867C165.651 161.511 169.147 162.964 172.872 162.964C173.934 162.964 174.972 162.815 175.983 162.582L186.185 172.831C188.806 175.48 192.308 176.937 196.033 176.937C199.753 176.937 203.255 175.48 205.885 172.84L221.633 157.009ZM136.391 93.679L155.714 74.2578C157.456 72.5071 160.473 72.5071 162.214 74.2578L167.644 79.7103C169.455 81.5309 169.455 84.4923 167.644 86.3082L164.929 89.0368L145.065 108.998L136.391 100.277C134.579 98.461 134.579 95.4996 136.391 93.679V93.679ZM150.29 116.965L174.251 92.8875C175.992 91.1367 179.009 91.1414 180.751 92.8875L181.114 93.2507C178.893 94.3635 176.798 95.7464 174.996 97.5623L169.567 103.019C167.76 104.835 167.76 107.774 169.567 109.589L175.564 115.615L158.964 132.284L150.29 123.563C148.478 121.742 148.478 118.781 150.29 116.965V116.965ZM169.613 152.297L164.184 146.844C162.373 145.024 162.373 142.062 164.184 140.246L182.129 122.213L194.091 134.235L176.113 152.301C174.376 154.047 171.355 154.047 169.613 152.297V152.297ZM192.778 166.265L184.066 157.512L200.661 140.833L210.979 151.202C211.538 151.766 212.181 152.203 212.786 152.692L199.278 166.265C197.546 168.021 194.515 168.016 192.778 166.265V166.265Z" fill="black"/>
<path d="M43.2603 49.8582L49.8442 43.2742L96.3992 89.8292L89.8153 96.4132L43.2603 49.8582Z" fill="black"/>
<path d="M102.438 27.9375H111.75V83.8125H102.438V27.9375Z" fill="black"/>
<path d="M27.9375 102.438H83.8125V111.75H27.9375V102.438Z" fill="black"/>
<path d="M201.536 208.171L208.12 201.587L254.675 248.142L248.091 254.726L201.536 208.171Z" fill="black"/>
<path d="M214.188 186.25H270.062V195.562H214.188V186.25Z" fill="black"/>
<path d="M186.25 214.187H195.562V270.062H186.25V214.187Z" fill="black"/>
</svg>
