<svg width="298" height="298" viewBox="0 0 298 298" fill="none" xmlns="http://www.w3.org/2000/svg">
<g clip-path="url(#clip0_531_558)">
<path d="M223.722 151.783L202.972 131.034C197.53 125.591 188.706 125.591 183.263 131.034C177.82 136.476 177.82 145.301 183.263 150.743L179.978 147.458C174.535 142.016 165.711 142.016 160.269 147.458C154.826 152.901 154.826 161.725 160.269 167.168L163.554 170.453C158.111 165.01 149.287 165.01 143.844 170.453C138.402 175.895 138.402 184.719 143.844 190.162L147.458 193.775C142.015 188.333 133.191 188.333 127.748 193.775C122.306 199.218 122.306 208.042 127.748 213.484L144.501 230.237L176.31 262.046C179.37 265.106 183.1 267.411 187.205 268.78L215.125 278.086C219.23 279.455 222.96 281.76 226.02 284.82L234.835 293.635L293.635 234.836L284.717 225.918C281.723 222.924 279.45 219.286 278.072 215.282L268.465 187.377C267.087 183.373 264.814 179.736 261.82 176.741L239.106 154.028C234.94 149.862 228.652 149.115 223.722 151.783V151.783Z" fill="#FCCFC9"/>
<path d="M174.066 220.382L147.458 193.775C142.016 188.332 133.191 188.332 127.749 193.775C126.659 194.865 125.797 196.095 125.144 197.402C130.362 194.793 136.873 195.655 141.226 200.007L167.833 226.615C172.186 230.967 173.047 237.478 170.439 242.697C171.746 242.043 172.976 241.182 174.066 240.091C179.508 234.649 179.508 225.825 174.066 220.382Z" fill="#FBB3A8"/>
<path d="M193.775 200.673L163.554 170.453C158.112 165.01 149.287 165.01 143.845 170.453C142.754 171.543 141.893 172.773 141.239 174.081C146.458 171.473 152.968 172.334 157.32 176.687L187.541 206.907C191.893 211.259 192.755 217.77 190.147 222.988C191.454 222.335 192.684 221.473 193.775 220.383C199.218 214.94 199.218 206.116 193.775 200.673V200.673Z" fill="#FBB3A8"/>
<path d="M233.194 161.255L202.973 131.034C197.53 125.591 188.706 125.591 183.264 131.034C182.292 132.005 181.502 133.088 180.877 134.237C186.163 131.362 192.912 132.153 197.384 136.623L227.604 166.844C232.076 171.315 232.866 178.065 229.991 183.35C231.139 182.726 232.222 181.935 233.194 180.964C238.636 175.521 238.636 166.697 233.194 161.255Z" fill="#FBB3A8"/>
<path d="M210.237 177.643L180.016 147.422C174.574 141.98 165.75 141.98 160.307 147.422C159.336 148.394 158.545 149.476 157.921 150.625C163.206 147.75 169.956 148.541 174.427 153.011L204.648 183.232C209.119 187.703 209.91 194.453 207.034 199.739C208.183 199.114 209.266 198.324 210.237 197.352C215.68 191.91 215.68 183.086 210.237 177.643Z" fill="#FBB3A8"/>
<path d="M293.635 234.836L284.717 225.918C281.723 222.924 279.45 219.286 278.072 215.282L268.465 187.377C267.087 183.373 264.814 179.736 261.82 176.741L239.106 154.028C234.026 148.948 225.79 148.948 220.711 154.028L201.002 173.737C195.559 179.18 195.559 188.004 201.002 193.446C206.444 198.889 215.268 198.889 220.711 193.446L228.266 201.002L227.609 209.542V221.648C227.609 229.04 230.546 236.13 235.773 241.357L244.034 249.618L261.443 267.028L293.635 234.836Z" fill="#FCCFC9"/>
<path d="M284.718 225.918C281.723 222.924 279.451 219.286 278.072 215.282L268.466 187.377C267.088 183.373 264.815 179.736 261.82 176.741L239.107 154.028C234.027 148.948 225.791 148.948 220.711 154.028L213.823 160.916C218.903 155.836 227.139 155.836 232.218 160.916L254.932 183.63C257.927 186.624 260.199 190.262 261.578 194.266L271.184 222.171C272.563 226.175 274.835 229.812 277.83 232.807L286.747 241.724L293.635 234.836L284.718 225.918Z" fill="#FBB3A8"/>
<path d="M146.217 74.2782L166.966 95.0277C172.409 100.47 172.409 109.294 166.966 114.737C161.524 120.18 152.699 120.18 147.257 114.737L150.542 118.022C155.984 123.465 155.984 132.289 150.542 137.731C145.099 143.174 136.275 143.174 130.832 137.731L127.547 134.446C132.99 139.889 132.99 148.713 127.547 154.156C122.105 159.598 113.281 159.598 107.838 154.156L104.225 150.542C109.667 155.985 109.667 164.809 104.225 170.252C98.7823 175.694 89.9582 175.694 84.5156 170.252L67.763 153.499L35.9538 121.69C32.8941 118.63 30.5887 114.9 29.2203 110.795L19.9136 82.8754C18.5453 78.7704 16.2398 75.0401 13.1801 71.9804L4.36523 63.1644L63.1644 4.36523L72.0817 13.2825C75.0762 16.2771 78.7139 18.5499 82.7177 19.9282L110.623 29.5346C114.627 30.9128 118.264 33.1857 121.259 36.1802L143.972 58.894C148.138 63.0602 148.885 69.3484 146.217 74.2782V74.2782Z" fill="#FCCFC9"/>
<path d="M77.618 123.934L104.226 150.542C109.668 155.984 109.668 164.809 104.226 170.251C103.135 171.341 101.906 172.203 100.598 172.856C103.207 167.638 102.346 161.127 97.9931 156.774L71.3856 130.167C67.0331 125.814 60.522 124.953 55.3035 127.562C55.9571 126.254 56.8185 125.024 57.9086 123.934C63.3512 118.492 72.1754 118.492 77.618 123.934V123.934Z" fill="#FBB3A8"/>
<path d="M97.3267 104.225L127.547 134.446C132.99 139.888 132.99 148.712 127.547 154.155C126.457 155.246 125.227 156.107 123.919 156.761C126.527 151.542 125.666 145.032 121.313 140.68L91.0925 110.459C86.7407 106.107 80.2301 105.245 75.0116 107.853C75.6652 106.545 76.5266 105.316 77.6174 104.225C83.0605 98.7824 91.8841 98.7824 97.3267 104.225V104.225Z" fill="#FBB3A8"/>
<path d="M136.745 64.8063L166.966 95.0271C172.409 100.47 172.409 109.294 166.966 114.736C165.995 115.708 164.912 116.498 163.763 117.123C166.638 111.837 165.847 105.088 161.377 100.616L131.156 70.3955C126.685 65.9244 119.935 65.134 114.65 68.0092C115.274 66.8609 116.065 65.7777 117.036 64.8063C122.479 59.3643 131.303 59.3643 136.745 64.8063V64.8063Z" fill="#FBB3A8"/>
<path d="M120.357 87.7628L150.578 117.984C156.021 123.426 156.021 132.25 150.578 137.693C149.607 138.664 148.524 139.455 147.375 140.079C150.25 134.793 149.459 128.044 144.989 123.573L114.768 93.352C110.297 88.8809 103.547 88.0905 98.2615 90.9657C98.886 89.8173 99.6764 88.7342 100.648 87.7628C106.09 82.3202 114.915 82.3202 120.357 87.7628V87.7628Z" fill="#FBB3A8"/>
<path d="M63.1643 4.36523L72.0816 13.2825C75.0762 16.2771 78.7133 18.5499 82.7177 19.9282L110.623 29.5346C114.627 30.9128 118.264 33.1857 121.259 36.1802L143.972 58.894C149.052 63.974 149.052 72.2097 143.972 77.2891L124.263 96.9984C118.82 102.441 109.996 102.441 104.554 96.9984C99.1112 91.5558 99.1112 82.7317 104.554 77.2891L96.9984 69.7337L88.4577 70.3909H76.352C68.9596 70.3909 61.8699 67.4545 56.6427 62.2273L48.3825 53.9665L30.9728 36.5568L63.1643 4.36523Z" fill="#FCCFC9"/>
<path d="M72.0816 13.2825C75.0762 16.2771 78.7139 18.5499 82.7177 19.9282L110.623 29.5346C114.627 30.9128 118.264 33.1857 121.259 36.1802L143.972 58.894C149.052 63.974 149.052 72.2097 143.972 77.2891L137.084 84.1774C142.164 79.0975 142.164 70.8617 137.084 65.7823L114.37 43.0686C111.376 40.074 107.738 37.8012 103.734 36.4229L75.8293 26.8165C71.825 25.4377 68.1879 23.1654 65.1933 20.1709L56.276 11.2536L63.1643 4.36523L72.0816 13.2825Z" fill="#FBB3A8"/>
<path d="M168.135 56.2021L164.766 14.1358L196.818 41.5873L218.819 5.57471L228.614 46.623L267.58 30.4199L251.377 69.3863L292.426 79.1813L256.413 101.182L283.865 133.234L241.798 129.865L168.135 56.2021Z" fill="#FFC163"/>
<path d="M292.426 79.1813L251.378 69.3863L267.581 30.4199L247.55 38.7493C247.55 38.7615 247.55 38.7738 247.55 38.7866C247.55 64.9919 230.436 87.1964 206.775 94.8432L241.798 129.866L283.864 133.235L256.413 101.182L292.426 79.1813Z" fill="#FFAA06"/>
<path d="M56.2021 168.135L14.1358 164.766L41.5873 196.818L5.57471 218.819L46.623 228.614L30.4199 267.58L69.3863 251.377L79.1813 292.425L101.182 256.413L133.234 283.864L129.865 241.798L56.2021 168.135Z" fill="#FFC163"/>
<path d="M79.1813 292.425L69.3863 251.377L30.4199 267.58L38.7494 247.55C38.7616 247.55 38.7738 247.55 38.7866 247.55C64.992 247.55 87.1965 230.436 94.8432 206.775L129.866 241.798L133.235 283.864L101.182 256.413L79.1813 292.425Z" fill="#FFAA06"/>
<path d="M229.107 281.733C225.587 278.213 221.23 275.52 216.506 273.945L188.586 264.639C185.142 263.49 181.965 261.527 179.398 258.959L168.477 248.038C171.735 247.264 174.726 245.606 177.153 243.179C181.095 239.236 182.854 233.93 182.442 228.766C182.932 228.805 183.424 228.829 183.921 228.829C188.809 228.829 193.406 226.925 196.862 223.469C200.318 220.012 202.223 215.416 202.223 210.528C202.223 210.033 202.198 209.543 202.159 209.055C202.646 209.094 203.136 209.118 203.63 209.118C208.527 209.118 213.124 207.214 216.577 203.752C217.811 202.513 218.847 201.13 219.673 199.626C221.153 198.814 222.545 197.786 223.798 196.533L236.609 183.722C238.314 182.017 238.314 179.253 236.609 177.549C234.904 175.844 232.14 175.844 230.436 177.549L217.625 190.36C213.892 194.091 207.82 194.092 204.089 190.36C202.281 188.553 201.286 186.149 201.286 183.592C201.286 181.036 202.281 178.632 204.089 176.825L223.798 157.115C227.167 153.745 232.65 153.745 236.02 157.115L238.05 159.146C239.754 160.851 242.518 160.851 244.223 159.147C245.928 157.442 245.929 154.678 244.224 152.974L242.193 150.942C238.912 147.661 234.549 145.854 229.909 145.854C228.13 145.854 226.392 146.121 224.74 146.634L206.058 127.947C198.923 120.812 187.313 120.812 180.177 127.947C176.924 131.2 175.159 135.383 174.872 139.649C168.762 138.017 161.966 139.587 157.181 144.372C153.725 147.828 151.821 152.425 151.821 157.313C151.821 158.936 152.035 160.526 152.443 162.054C148.027 162.351 143.917 164.208 140.758 167.366C135.886 172.238 134.343 179.196 136.124 185.392C131.793 185.737 127.767 187.583 124.661 190.689C117.526 197.825 117.526 209.435 124.661 216.572L151.27 243.179L173.225 265.133C176.745 268.654 181.103 271.347 185.826 272.921L213.745 282.228C217.19 283.376 220.367 285.34 222.934 287.907L231.75 296.722C232.602 297.575 233.719 298.001 234.836 298.001C235.953 298.001 237.071 297.575 237.923 296.722C239.628 295.017 239.628 292.253 237.923 290.549L229.107 281.733ZM186.351 134.12C190.081 130.388 196.153 130.387 199.885 134.119L217.163 151.402L203.629 164.937L186.351 147.654C182.62 143.922 182.62 137.851 186.351 134.12V134.12ZM163.355 150.544C167.086 146.812 173.158 146.812 176.889 150.544L197.466 171.122C190.787 178.289 190.933 189.551 197.915 196.533C199.598 198.216 201.532 199.497 203.595 200.386C201.047 200.377 198.658 199.386 196.862 197.586L163.355 164.078C161.547 162.271 160.552 159.868 160.552 157.311C160.552 154.755 161.547 152.352 163.355 150.544V150.544ZM146.932 173.539C148.739 171.731 151.143 170.736 153.7 170.736C156.256 170.736 158.659 171.731 160.467 173.539L190.688 203.76C192.496 205.567 193.492 207.971 193.492 210.528C193.492 213.085 192.496 215.488 190.688 217.296C188.881 219.103 186.477 220.099 183.921 220.099C181.364 220.099 178.961 219.103 177.153 217.296L146.932 187.075C143.2 183.343 143.2 177.27 146.932 173.539V173.539ZM130.836 196.862C132.643 195.054 135.047 194.058 137.604 194.058C140.161 194.058 142.564 195.054 144.372 196.862L170.979 223.469C174.711 227.201 174.711 233.273 170.979 237.005C169.172 238.812 166.768 239.808 164.211 239.808C161.655 239.808 159.251 238.812 157.444 237.004L130.836 210.397C127.104 206.665 127.104 200.594 130.836 196.862Z" fill="black"/>
<path d="M238.86 238.271C234.419 233.83 231.974 227.927 231.974 221.648V209.542C231.974 207.13 230.02 205.177 227.609 205.177C225.198 205.177 223.244 207.13 223.244 209.542V221.648C223.244 230.259 226.598 238.354 232.686 244.444L240.946 252.704C241.799 253.556 242.917 253.982 244.033 253.982C245.15 253.982 246.268 253.556 247.121 252.704C248.825 250.999 248.825 248.235 247.121 246.53L238.86 238.271Z" fill="black"/>
<path d="M296.722 231.75L287.804 222.832C285.294 220.322 283.355 217.22 282.2 213.862L272.593 185.957C271.008 181.354 268.351 177.1 264.906 173.655L258.794 167.544C257.09 165.839 254.326 165.839 252.621 167.544C250.917 169.249 250.917 172.013 252.622 173.717L258.733 179.828C261.244 182.339 263.183 185.442 264.338 188.799L273.945 216.704C275.531 221.309 278.189 225.563 281.631 229.005L290.548 237.922C291.401 238.775 292.518 239.201 293.635 239.201C294.752 239.201 295.87 238.775 296.722 237.923C298.427 236.219 298.427 233.455 296.722 231.75V231.75Z" fill="black"/>
<path d="M10.0936 75.0669C12.6609 77.6337 14.6247 80.811 15.773 84.2555L25.0791 112.174C26.6535 116.898 29.3466 121.256 32.8673 124.776L60.6302 152.539C62.3355 154.243 65.099 154.243 66.8038 152.539C68.5086 150.833 68.5086 148.07 66.8038 146.365L60.9957 140.557C59.1879 138.75 58.1921 136.346 58.1921 133.789C58.1921 131.232 59.1879 128.829 60.9957 127.021C64.7277 123.289 70.8012 123.291 74.5308 127.021L101.138 153.629C104.87 157.36 104.87 163.433 101.138 167.165C97.4076 170.896 91.3341 170.897 87.6033 167.165L81.1858 160.747C79.4804 159.043 76.717 159.043 75.0122 160.747C73.3074 162.453 73.3074 165.216 75.0122 166.921L81.4297 173.338C84.9981 176.906 89.6846 178.689 94.3711 178.689C99.0576 178.689 103.744 176.906 107.312 173.338C110.502 170.148 112.262 166.063 112.599 161.884C114.234 162.355 115.944 162.603 117.693 162.603C122.582 162.603 127.178 160.699 130.635 157.242C133.884 153.993 135.648 149.815 135.939 145.555C137.469 145.964 139.062 146.179 140.689 146.179C145.576 146.179 150.173 144.275 153.629 140.819C158.414 136.034 159.985 129.238 158.353 123.128C162.618 122.841 166.801 121.075 170.054 117.823C177.189 110.687 177.189 99.0775 170.053 91.9412L151.357 73.2504C153.201 67.2869 151.77 60.5196 147.058 55.8069L124.345 33.0932C120.901 29.6493 116.647 26.9917 112.043 25.4069L84.1396 15.8004C80.7807 14.6445 77.6785 12.7063 75.1682 10.1949L66.2509 1.27816C64.5461 -0.426605 61.782 -0.426023 60.0778 1.27875C58.3737 2.98352 58.3731 5.74758 60.0784 7.45177L68.9951 16.3679C72.4373 19.8106 76.6913 22.4688 81.2975 24.0554L109.202 33.6618C112.559 34.8171 115.661 36.7553 118.172 39.2668L140.885 61.98C144.255 65.3493 144.255 70.8321 140.885 74.2014L121.176 93.9108C117.445 97.6428 111.372 97.6428 107.641 93.9114C103.909 90.1794 103.909 84.1065 107.641 80.375L120.452 67.564C122.157 65.8586 122.157 63.0951 120.452 61.3904C118.747 59.6862 115.983 59.6862 114.278 61.3904L101.467 74.202C100.215 75.4546 99.1869 76.8474 98.3743 78.3269C96.8698 79.1522 95.4863 80.1894 94.2442 81.4262C90.787 84.8765 88.8826 89.4728 88.8826 94.3694C88.8826 94.8636 88.907 95.353 88.9454 95.8402C88.4577 95.8018 87.9676 95.7768 87.4729 95.7768C82.5844 95.7768 77.9881 97.6806 74.5314 101.137C71.0753 104.594 69.1715 109.19 69.1715 114.079C69.1715 114.575 69.1959 115.068 69.2349 115.558C64.0712 115.144 58.7642 116.905 54.8227 120.846C52.395 123.274 50.7368 126.264 49.9627 129.522L39.0409 118.601C36.4736 116.034 34.5104 112.857 33.362 109.413L24.0554 81.4943C22.4804 76.7711 19.7873 72.4134 16.2672 68.8939L7.45174 60.0785C5.74697 58.3731 2.98291 58.3737 1.27872 60.0779C-0.426631 61.7826 -0.426631 64.5467 1.27814 66.2509L10.0936 75.0669ZM146.598 80.8372L163.88 98.1148C167.612 101.847 167.612 107.919 163.88 111.649C160.149 115.381 154.078 115.381 150.346 111.649L133.063 94.3717L146.598 80.8372ZM114.409 105.445C119.08 105.445 123.48 103.704 126.879 100.534L147.456 121.111C151.187 124.842 151.187 130.914 147.456 134.645C145.649 136.453 143.245 137.448 140.689 137.448C138.132 137.448 135.729 136.453 133.921 134.645L100.411 101.135C98.6147 99.3423 97.6235 96.9536 97.6142 94.4055C98.503 96.4688 99.784 98.4029 101.467 100.086C104.924 103.542 109.52 105.445 114.409 105.445V105.445ZM77.9014 114.08C77.9014 111.523 78.8967 109.12 80.7045 107.311C82.5117 105.504 84.9154 104.508 87.4723 104.508C90.0292 104.508 92.4324 105.504 94.2402 107.312L124.461 137.533C128.193 141.264 128.193 147.337 124.461 151.068C122.654 152.876 120.25 153.872 117.693 153.872C115.136 153.872 112.733 152.876 110.925 151.068L80.7045 120.847C78.8967 119.039 77.9014 116.636 77.9014 114.08V114.08Z" fill="black"/>
<path d="M53.5568 65.3144C59.646 71.403 67.7415 74.7567 76.3521 74.7567H88.4583C90.8697 74.7567 92.8235 72.8028 92.8235 70.3914C92.8235 67.9801 90.8697 66.0262 88.4583 66.0262H76.3521C70.0737 66.0262 64.1701 63.5811 59.7298 59.1408L51.4696 50.88C49.7643 49.1758 47.0008 49.1758 45.296 50.88C43.5913 52.5854 43.5913 55.3488 45.296 57.0536L53.5568 65.3144Z" fill="black"/>
<path d="M163.784 56.5502C163.976 58.9534 166.08 60.7443 168.484 60.5528C170.887 60.3607 172.679 58.2567 172.486 55.8535L169.962 24.333L193.979 44.9026C194.95 45.7343 196.237 46.1004 197.501 45.8984C198.765 45.6982 199.877 44.9544 200.544 43.8631L217.029 16.8789L224.368 47.637C224.665 48.8813 225.493 49.9319 226.633 50.5128C227.773 51.0942 229.11 51.146 230.291 50.6536L259.488 38.513L247.348 67.7106C246.856 68.8916 246.908 70.2291 247.488 71.3687C248.069 72.5083 249.12 73.336 250.364 73.6328L281.122 80.9722L254.138 97.4571C253.047 98.1241 252.303 99.2364 252.103 100.5C251.902 101.763 252.266 103.051 253.099 104.022L273.668 128.039L242.148 125.515C239.739 125.318 237.64 127.116 237.448 129.518C237.256 131.921 239.048 134.025 241.451 134.217C241.451 134.217 283.751 137.6 283.867 137.6C285.498 137.6 287.007 136.688 287.756 135.217C288.558 133.641 288.331 131.738 287.182 130.395L263.064 102.236L294.703 82.9075C296.211 81.9855 297.015 80.2452 296.738 78.4997C296.462 76.7536 295.16 75.3469 293.44 74.9365L257.377 66.3312L271.612 32.0973C272.291 30.4647 271.918 28.5847 270.668 27.334C269.419 26.0849 267.538 25.7107 265.905 26.3905L231.671 40.6252L223.065 4.56082C222.654 2.8415 221.248 1.53949 219.501 1.26303C217.757 0.985399 216.016 1.79035 215.094 3.29839L195.765 34.937L167.606 10.82C166.263 9.66872 164.359 9.44406 162.784 10.2461C161.209 11.0487 160.274 12.7221 160.415 14.4839L163.784 56.5502Z" fill="black"/>
<path d="M134.216 241.45C134.025 239.047 131.924 237.252 129.517 237.447C127.114 237.639 125.322 239.743 125.515 242.147L128.039 273.667L104.022 253.097C103.05 252.265 101.762 251.898 100.499 252.102C99.2358 252.302 98.1235 253.046 97.4565 254.137L80.9717 281.121L73.6322 250.363C73.3354 249.119 72.5078 248.068 71.3681 247.487C70.2279 246.906 68.8916 246.855 67.7101 247.346L38.5125 259.487L50.6531 230.289C51.1443 229.108 51.0931 227.771 50.5122 226.631C49.9314 225.492 48.8802 224.664 47.6364 224.367L16.8784 217.028L43.8625 200.543C44.9538 199.876 45.6977 198.764 45.8979 197.5C46.0987 196.237 45.7343 194.949 44.902 193.978L24.3325 169.961L55.8529 172.485C58.2713 172.686 60.3608 170.886 60.5523 168.482C60.7449 166.079 58.9528 163.975 56.5496 163.783L14.4833 160.414C12.7157 160.273 11.0476 161.208 10.2456 162.783C9.44293 164.359 9.66992 166.262 10.8194 167.605L34.9371 195.764L3.29843 215.094C1.7898 216.016 0.986018 217.756 1.26306 219.501C1.53953 221.248 2.84153 222.654 4.56085 223.065L40.6241 231.67L26.3894 265.904C25.7107 267.536 26.0832 269.416 27.3328 270.667C28.583 271.916 30.463 272.291 32.0962 271.611L66.3301 257.376L74.9354 293.439C75.8189 297.141 80.9175 297.957 82.9063 294.702L102.235 263.063L130.394 287.181C131.738 288.331 133.641 288.557 135.216 287.755C136.791 286.952 137.726 285.279 137.585 283.517L134.216 241.45Z" fill="black"/>
</g>
<defs>
<clipPath id="clip0_531_558">
<rect width="298" height="298" fill="white"/>
</clipPath>
</defs>
</svg>
