<svg width="298" height="298" viewBox="0 0 298 298" fill="none" xmlns="http://www.w3.org/2000/svg">
<path d="M259.657 164.148C265.855 138.429 263.964 111.423 254.244 86.8173C245.645 64.965 231.251 45.8709 212.609 31.5899C193.967 17.3089 171.784 8.38159 148.447 5.76858C125.11 3.15558 101.501 6.95583 80.163 16.7604C58.8245 26.565 40.5636 42.0027 27.3452 61.4123C14.1268 80.8219 6.45131 103.469 5.14476 126.915C3.83821 150.362 8.95004 173.721 19.9302 194.479C30.9103 215.237 47.343 232.608 67.4601 244.723C87.5771 256.838 110.617 263.237 134.1 263.233C144.222 263.237 154.309 262.037 164.148 259.657L259.657 164.148Z" fill="#3D86FB"/>
<path d="M223.5 293.033C261.902 293.033 293.033 261.902 293.033 223.5C293.033 185.098 261.902 153.967 223.5 153.967C185.098 153.967 153.967 185.098 153.967 223.5C153.967 261.902 185.098 293.033 223.5 293.033Z" fill="#EAF2F2"/>
<path d="M104.3 201.498V219.427C104.303 222.187 103.624 224.905 102.324 227.339C101.025 229.774 99.1444 231.85 96.85 233.384C94.5434 234.897 92.6499 236.96 91.3406 239.388C90.0312 241.816 89.3472 244.532 89.3503 247.29V255.237C73.409 249.333 58.7869 240.347 46.3193 228.791C33.8517 217.236 23.7829 203.337 16.688 187.889L24.6843 169.81C25.981 167.094 27.9022 164.723 30.2908 162.891C32.6795 161.06 35.4677 159.82 38.4275 159.272C41.3874 158.725 44.4347 158.886 47.3204 159.742C50.2061 160.598 52.8482 162.125 55.0307 164.198C57.4106 166.804 60.3714 168.811 63.6727 170.059L87.2643 177.906C92.2209 179.552 96.5336 182.717 99.5912 186.951C102.649 191.186 104.296 196.275 104.3 201.498V201.498Z" fill="#75C883"/>
<path d="M254.244 86.8173C247.092 111.7 239.294 134.895 232.043 154.513L182.624 167.277C181.276 163.386 178.747 160.013 175.391 157.627C172.035 155.241 168.018 153.962 163.9 153.967C159.245 153.969 154.638 153.036 150.35 151.224C146.062 149.412 142.182 146.757 138.94 143.418C135.698 140.078 133.159 136.121 131.474 131.782C129.79 127.443 128.994 122.81 129.133 118.157C129.647 108.948 133.702 100.295 140.451 94.0095C147.2 87.7236 156.119 84.2921 165.34 84.4333H193.154C195.702 84.4822 198.178 83.5854 200.104 81.9162C202.03 80.2469 203.27 77.9234 203.584 75.394C203.674 74.0277 203.487 72.6573 203.034 71.3651C202.581 70.0729 201.872 68.8855 200.949 67.8742C200.026 66.863 198.908 66.0487 197.662 65.4803C196.417 64.9119 195.069 64.6012 193.7 64.5666H160.175C157.398 64.6103 154.659 63.9181 152.236 62.5604C149.813 61.2028 147.793 59.228 146.381 56.8368C144.968 54.4456 144.214 51.7231 144.194 48.9458C144.174 46.1686 144.89 43.4357 146.268 41.0246C146.268 40.975 159.678 18.625 165.539 8.84064C185.464 13.8383 203.908 23.5212 219.337 37.0839C234.766 50.6466 246.733 67.6972 254.244 86.8173V86.8173Z" fill="#75C883"/>
<path d="M80.8077 59.153L48.6734 96.6513C45.6311 100.228 43.9588 104.77 43.955 109.465C43.9432 114.678 41.8673 119.674 38.1814 123.36C34.4955 127.046 29.4997 129.122 24.287 129.133H5.06604C5.7437 111.014 10.2394 93.2427 18.259 76.981C26.2785 60.7193 37.6413 46.3341 51.6037 34.7667H69.6327C72.4321 34.8253 75.1583 35.6716 77.4988 37.2085C79.8394 38.7454 81.6995 40.9107 82.8659 43.4562C84.0324 46.0017 84.458 48.8243 84.094 51.6006C83.7299 54.3768 82.591 56.9943 80.8077 59.153V59.153Z" fill="#75C883"/>
<path d="M284.208 189.23C283.618 189.51 283.09 189.903 282.652 190.388C282.215 190.872 281.877 191.438 281.659 192.052C281.44 192.667 281.345 193.319 281.378 193.971C281.411 194.623 281.573 195.261 281.853 195.851C285.967 204.486 288.09 213.935 288.067 223.5C288.066 238.68 282.718 253.374 272.96 265.003C263.202 276.631 249.659 284.449 234.71 287.085C219.761 289.72 204.361 287.004 191.215 279.414C178.069 271.824 168.018 259.844 162.826 245.58C157.635 231.315 157.636 215.677 162.828 201.413C168.02 187.149 178.073 175.17 191.219 167.581C204.366 159.992 219.766 157.277 234.715 159.913C249.664 162.55 263.206 170.37 272.963 181.999C273.811 183.007 275.025 183.637 276.338 183.75C277.651 183.863 278.955 183.45 279.964 182.602C280.972 181.754 281.602 180.54 281.715 179.227C281.828 177.914 281.415 176.61 280.567 175.601C276.108 170.352 270.943 165.745 265.22 161.913C272.455 127.967 266.234 92.5379 247.866 63.0875C229.499 33.6371 200.419 12.4641 166.751 4.02797C148.325 -0.592936 129.128 -1.24638 110.431 2.11092C91.7334 5.46822 73.9627 12.7596 58.2957 23.5023C42.6287 34.2449 29.4228 48.1935 19.5527 64.4244C9.6826 80.6553 3.37355 98.798 1.04339 117.651C-1.28676 136.504 0.415153 155.636 6.03642 173.782C11.6577 191.928 21.07 208.672 33.65 222.906C46.2301 237.14 61.6907 248.538 79.0079 256.347C96.3251 264.155 115.104 268.196 134.1 268.2C143.417 268.181 152.706 267.182 161.814 265.22C172.344 280.755 188.349 291.743 206.63 295.988C224.911 300.233 244.121 297.422 260.419 288.117C276.717 278.812 288.903 263.699 294.541 245.799C300.178 227.898 298.853 208.53 290.828 191.564C290.259 190.377 289.242 189.465 288.001 189.027C286.76 188.589 285.395 188.662 284.208 189.23V189.23ZM238.718 150.629C244.251 135.352 249.565 119.498 254.383 103.769C258.863 121.037 259.475 139.082 256.176 156.614C250.629 153.895 244.764 151.879 238.718 150.614V150.629ZM248.974 87.1352C243.014 107.767 236.011 129.108 228.641 149.298C226.932 149.164 225.228 149 223.5 149C209.72 149.007 196.217 152.864 184.512 160.135C182.264 156.721 179.204 153.916 175.607 151.973C172.011 150.03 167.988 149.008 163.9 149C159.909 149.002 155.959 148.202 152.283 146.648C148.608 145.095 145.281 142.818 142.502 139.955C139.723 137.091 137.547 133.698 136.104 129.978C134.66 126.257 133.979 122.285 134.1 118.296C134.587 110.385 138.107 102.966 143.926 97.5834C149.745 92.2011 157.415 89.2699 165.34 89.4H193.154C196.947 89.4556 200.626 88.0968 203.472 85.5883C206.318 83.0799 208.129 79.6015 208.55 75.8311C208.701 73.7767 208.431 71.7131 207.756 69.7668C207.081 67.8206 206.016 66.0327 204.626 64.5129C203.235 62.9931 201.549 61.7734 199.67 60.9286C197.791 60.0838 195.76 59.6317 193.7 59.6H160.175C158.19 59.5963 156.242 59.0672 154.528 58.0667C152.814 57.0661 151.395 55.6296 150.416 53.9032C149.494 52.3333 149.018 50.5417 149.039 48.7213C149.06 46.901 149.577 45.1208 150.535 43.5726L150.614 43.4236C151.18 42.4302 157.329 32.2039 162.956 22.8169L167.844 14.6517C185.989 19.7627 202.729 28.947 216.788 41.5053C230.847 54.0636 241.855 69.6646 248.974 87.1203V87.1352ZM53.5357 39.7333H69.6327C71.4909 39.7595 73.3021 40.3206 74.8498 41.3494C76.3974 42.3782 77.6158 43.8312 78.3591 45.5344C79.1807 47.2057 79.493 49.0815 79.2572 50.9288C79.0214 52.7761 78.248 54.5133 77.033 55.9247L44.8788 93.4379C41.0844 97.9172 38.9977 103.595 38.9883 109.465C38.9831 113.363 37.4325 117.099 34.6766 119.855C31.9207 122.611 28.1844 124.161 24.287 124.167H10.3803C13.009 91.4157 28.5307 61.0474 53.5357 39.7333V39.7333ZM22.1613 187.805L29.2239 171.847C30.1564 169.847 31.5615 168.103 33.318 166.767C35.0745 165.431 37.1297 164.543 39.3062 164.178C41.4757 163.733 43.7209 163.823 45.8478 164.44C47.9748 165.057 49.9196 166.183 51.5143 167.719C54.4364 170.881 58.0672 173.303 62.1082 174.787L85.7048 182.639C89.6706 183.951 93.1221 186.479 95.5687 189.865C98.0153 193.25 99.3326 197.321 99.3333 201.498V219.427C99.3345 221.361 98.8609 223.265 97.9542 224.973C97.0475 226.68 95.7355 228.139 94.1332 229.222C91.1306 231.182 88.6658 233.862 86.963 237.017C85.2602 240.173 84.3736 243.705 84.3837 247.29V247.837C57.1586 235.87 35.0956 214.583 22.1613 187.805V187.805ZM134.1 258.267C120.568 258.268 107.129 256.046 94.317 251.691V247.29C94.3102 245.353 94.789 243.445 95.7095 241.74C96.63 240.035 97.963 238.588 99.5866 237.531C102.575 235.553 105.025 232.863 106.715 229.703C108.405 226.542 109.282 223.011 109.267 219.427V201.498C109.271 195.23 107.299 189.12 103.63 184.037C99.9619 178.954 94.7842 175.158 88.8338 173.188L65.2272 165.34C62.6747 164.316 60.3886 162.725 58.5421 160.687C55.808 158.008 52.4628 156.035 48.7955 154.939C45.1282 153.842 41.2491 153.655 37.4934 154.394C33.7294 155.052 30.1824 156.617 27.1589 158.954C24.1354 161.29 21.7263 164.328 20.1398 167.804L16.9165 175.09C12.2908 161.919 9.92972 148.06 9.93334 134.1H24.287C30.8181 134.092 37.0795 131.494 41.6976 126.876C46.3158 122.258 48.9138 115.996 48.9217 109.465C48.9277 105.954 50.1769 102.558 52.448 99.8797L84.5774 62.3813C86.9771 59.5012 88.5129 56.001 89.0075 52.2849C89.502 48.5689 88.9351 44.7887 87.3721 41.3813C85.8091 37.9738 83.314 35.0781 80.1749 33.0288C77.0359 30.9794 73.381 29.86 69.6327 29.8H66.8563C93.7329 12.3903 126.316 6.08732 157.746 12.218L154.463 17.7062C146.546 30.9076 143.403 36.1524 142.151 38.5662L142.032 38.4917C140.176 41.5486 139.175 45.048 139.134 48.624C139.093 52.2 140.013 55.7214 141.798 58.8202C143.646 62.0664 146.319 64.7668 149.546 66.648C152.773 68.5293 156.44 69.5246 160.175 69.5333H193.7C194.378 69.5508 195.045 69.7086 195.658 69.9967C196.272 70.2847 196.82 70.6969 197.266 71.2071C197.743 71.705 198.112 72.2969 198.348 72.9451C198.584 73.5933 198.682 74.2835 198.637 74.9718C198.421 76.2518 197.749 77.4102 196.744 78.2322C195.739 79.0541 194.471 79.4839 193.174 79.4418H165.36C154.844 79.319 144.686 83.2644 137.01 90.4539C129.334 97.6434 124.732 107.521 124.167 118.023C124.009 123.339 124.92 128.633 126.847 133.59C128.773 138.547 131.674 143.068 135.38 146.883C139.085 150.698 143.519 153.73 148.418 155.8C153.317 157.87 158.582 158.936 163.9 158.933C166.397 158.938 168.852 159.573 171.037 160.78C173.223 161.987 175.068 163.726 176.401 165.837C163.36 176.427 154.302 191.132 150.712 207.543C147.123 223.955 149.214 241.099 156.644 256.166C149.21 257.557 141.663 258.26 134.1 258.267V258.267Z" fill="#373737"/>
<path d="M228.467 173.833C228.467 172.516 227.943 171.253 227.012 170.321C226.081 169.39 224.817 168.867 223.5 168.867C222.183 168.867 220.92 169.39 219.988 170.321C219.057 171.253 218.533 172.516 218.533 173.833V178.8C218.533 180.117 219.057 181.381 219.988 182.312C220.92 183.243 222.183 183.767 223.5 183.767C224.817 183.767 226.081 183.243 227.012 182.312C227.943 181.381 228.467 180.117 228.467 178.8V173.833Z" fill="#373737"/>
<path d="M195.404 188.381L191.892 184.869C190.955 183.965 189.701 183.464 188.399 183.475C187.096 183.487 185.851 184.009 184.93 184.93C184.009 185.851 183.487 187.096 183.475 188.399C183.464 189.701 183.965 190.955 184.869 191.892L188.381 195.404C189.317 196.308 190.572 196.809 191.874 196.798C193.177 196.786 194.422 196.264 195.343 195.343C196.264 194.422 196.786 193.176 196.798 191.874C196.809 190.572 196.308 189.317 195.404 188.381Z" fill="#373737"/>
<path d="M178.8 218.533H173.833C172.516 218.533 171.253 219.057 170.321 219.988C169.39 220.919 168.867 222.183 168.867 223.5C168.867 224.817 169.39 226.081 170.321 227.012C171.253 227.943 172.516 228.467 173.833 228.467H178.8C180.117 228.467 181.381 227.943 182.312 227.012C183.243 226.081 183.767 224.817 183.767 223.5C183.767 222.183 183.243 220.919 182.312 219.988C181.381 219.057 180.117 218.533 178.8 218.533Z" fill="#373737"/>
<path d="M188.381 263.586C189.698 263.586 190.961 263.062 191.892 262.131L195.404 258.619C196.308 257.683 196.809 256.428 196.798 255.126C196.786 253.823 196.264 252.578 195.343 251.657C194.422 250.736 193.177 250.214 191.874 250.202C190.572 250.191 189.317 250.692 188.381 251.596L184.869 255.108C184.175 255.802 183.702 256.687 183.511 257.651C183.319 258.614 183.417 259.612 183.793 260.52C184.169 261.427 184.805 262.203 185.622 262.749C186.439 263.294 187.399 263.586 188.381 263.586Z" fill="#373737"/>
<path d="M223.5 263.233C222.183 263.233 220.92 263.757 219.988 264.688C219.057 265.619 218.533 266.883 218.533 268.2V273.167C218.533 274.484 219.057 275.747 219.988 276.679C220.92 277.61 222.183 278.133 223.5 278.133C224.817 278.133 226.081 277.61 227.012 276.679C227.943 275.747 228.467 274.484 228.467 273.167V268.2C228.467 266.883 227.943 265.619 227.012 264.688C226.081 263.757 224.817 263.233 223.5 263.233Z" fill="#373737"/>
<path d="M251.596 258.619L255.108 262.131C256.045 263.035 257.299 263.536 258.601 263.525C259.904 263.513 261.149 262.991 262.07 262.07C262.991 261.149 263.513 259.904 263.525 258.601C263.536 257.299 263.035 256.045 262.131 255.108L258.619 251.596C257.683 250.692 256.428 250.191 255.126 250.202C253.824 250.214 252.578 250.736 251.657 251.657C250.736 252.578 250.214 253.823 250.202 255.126C250.191 256.428 250.692 257.683 251.596 258.619Z" fill="#373737"/>
<path d="M268.2 228.467H273.167C274.484 228.467 275.747 227.943 276.679 227.012C277.61 226.081 278.133 224.817 278.133 223.5C278.133 222.183 277.61 220.919 276.679 219.988C275.747 219.057 274.484 218.533 273.167 218.533H268.2C266.883 218.533 265.619 219.057 264.688 219.988C263.757 220.919 263.233 222.183 263.233 223.5C263.233 224.817 263.757 226.081 264.688 227.012C265.619 227.943 266.883 228.467 268.2 228.467Z" fill="#373737"/>
<path d="M255.108 196.859C256.425 196.858 257.688 196.335 258.619 195.404L262.131 191.892C263.035 190.955 263.536 189.701 263.525 188.399C263.513 187.096 262.991 185.851 262.07 184.93C261.149 184.009 259.904 183.487 258.601 183.475C257.299 183.464 256.045 183.965 255.108 184.869L251.596 188.381C250.902 189.075 250.429 189.96 250.238 190.923C250.046 191.887 250.144 192.885 250.52 193.793C250.896 194.7 251.533 195.476 252.349 196.021C253.166 196.567 254.126 196.859 255.108 196.859V196.859Z" fill="#373737"/>
<path d="M228.467 198.667C228.467 197.349 227.943 196.086 227.012 195.155C226.081 194.223 224.817 193.7 223.5 193.7C222.183 193.7 220.919 194.223 219.988 195.155C219.057 196.086 218.533 197.349 218.533 198.667V220.843L205.844 229.286C205.301 229.648 204.835 230.114 204.472 230.656C204.109 231.198 203.857 231.806 203.729 232.446C203.601 233.085 203.601 233.744 203.727 234.384C203.854 235.024 204.106 235.632 204.468 236.175C204.83 236.718 205.295 237.184 205.837 237.546C206.379 237.909 206.988 238.162 207.627 238.29C208.267 238.417 208.925 238.418 209.565 238.291C210.205 238.164 210.814 237.913 211.357 237.551L226.257 227.617C226.934 227.165 227.491 226.553 227.876 225.835C228.262 225.117 228.464 224.315 228.467 223.5V198.667Z" fill="#373737"/>
</svg>
