<svg width="298" height="298" viewBox="0 0 298 298" fill="none" xmlns="http://www.w3.org/2000/svg">
<g clip-path="url(#clip0_510_958)">
<path d="M217.995 156.344C183.946 156.344 156.341 183.946 156.341 217.996C156.341 252.045 183.946 279.65 217.995 279.65C252.045 279.65 279.65 252.045 279.65 217.996C279.609 183.961 252.03 156.382 217.995 156.344V156.344ZM217.995 269.232C189.699 269.232 166.759 246.292 166.759 217.996C166.759 189.699 189.699 166.759 217.995 166.759C246.292 166.759 269.232 189.699 269.232 217.996C269.199 246.279 246.279 269.199 217.995 269.232Z" fill="black"/>
<path d="M239.964 217.37H219.974V189.755C219.974 186.876 217.642 184.546 214.765 184.546C211.889 184.546 209.556 186.876 209.556 189.755V222.701C209.582 224.08 210.156 225.392 211.151 226.346C212.145 227.302 213.481 227.821 214.859 227.788H239.964C242.843 227.788 245.173 225.456 245.173 222.579C245.173 219.702 242.843 217.37 239.964 217.37V217.37Z" fill="black"/>
<path d="M261.197 150.684C262.146 144.27 262.621 137.797 262.624 131.311C262.624 58.9049 203.716 0 131.311 0C58.9074 0 0 58.9074 0 131.311C0 203.716 58.9074 262.624 131.311 262.624C137.797 262.624 144.27 262.146 150.684 261.197C168.346 288.735 201 302.742 233.127 296.559C265.254 290.376 290.376 265.254 296.559 233.127C302.742 201 288.735 168.346 261.197 150.684V150.684ZM217.996 137.987C214.773 138.005 211.55 138.219 208.353 138.623C208.376 137.941 208.394 137.278 208.412 136.627H252.094C251.969 139.231 251.732 142.443 251.397 145.356C240.928 140.508 229.533 137.995 217.996 137.99V137.987ZM36.6543 206.479C20.8058 186.53 11.6645 162.082 10.5377 136.629H54.2045C54.5402 153.327 57.249 169.893 62.2521 185.828C52.8844 191.607 44.2848 198.545 36.6543 206.479ZM62.2521 76.9332C57.2516 92.8962 54.5402 109.487 54.2045 126.211H10.5377C11.55 100.71 20.7015 76.2032 36.6543 56.28C44.2848 64.2131 52.8869 71.1518 62.2521 76.9332ZM225.987 56.28C241.93 76.2057 251.074 100.712 252.086 126.211H208.419C208.086 109.538 205.39 92.9979 200.41 77.0832C209.785 71.2637 218.38 64.2716 225.987 56.28V56.28ZM197.999 126.211H136.629V96.3629C155.619 95.6965 174.235 90.8944 191.177 82.2923C195.394 96.5639 197.688 111.334 197.999 126.211ZM136.629 85.9371V12.0892C160.07 24.6033 177.521 45.6405 187.804 72.2837C171.991 80.634 154.497 85.3013 136.629 85.9371ZM126.211 85.9143C108.358 85.197 90.8893 80.4966 75.0866 72.1539C85.3801 45.5693 102.77 24.5829 126.211 12.0892V85.9143ZM126.211 96.34V126.211H64.6226C64.9736 111.283 67.3187 96.4672 71.5969 82.1626C88.5417 90.8359 107.188 95.6787 126.211 96.34ZM64.6226 136.629H126.211V166.281C107.18 166.986 88.5341 171.864 71.5969 180.573C67.3162 166.304 64.9736 151.524 64.6226 136.629V136.629ZM126.211 176.704V250.542C102.77 238.041 85.375 217.052 75.084 190.465C90.8842 182.117 108.356 177.414 126.211 176.704ZM143.329 246.582C141.134 247.986 138.582 249.306 136.629 250.542V176.684C140.536 176.839 144.819 177.205 148.907 177.785C136.726 198.69 134.676 223.988 143.329 246.582ZM155.413 168.28C149.212 167.138 142.932 166.462 136.629 166.256V136.629H197.991C197.953 137.931 197.932 139.277 197.866 140.617C181.092 144.997 166.195 154.706 155.413 168.28ZM219.127 48.3112C212.479 55.4101 204.983 61.6671 196.813 66.9474C188.079 45.0479 174.67 26.6787 157.366 13.2542C181 18.4912 202.516 30.7051 219.127 48.3112ZM105.26 13.2542C87.9872 26.6559 74.5957 44.9818 65.8588 66.8304C57.6916 61.573 50.1883 55.349 43.5142 48.2934C60.1257 30.6975 81.6335 18.4912 105.26 13.2542ZM43.5142 214.328C50.1883 207.272 57.6891 201.048 65.8562 195.791C74.5906 217.637 87.9796 235.965 105.25 249.367C81.6285 244.127 60.1232 231.924 43.5142 214.328ZM217.996 287.581C179.563 287.583 148.405 256.425 148.408 217.993C148.408 179.558 179.563 148.403 217.998 148.403C256.43 148.405 287.586 179.563 287.583 217.996C287.542 256.41 256.41 287.54 217.996 287.583V287.581Z" fill="black"/>
</g>
<defs>
<clipPath id="clip0_510_958">
<rect width="298" height="298" fill="white"/>
</clipPath>
</defs>
</svg>
