<svg width="298" height="188" viewBox="0 0 298 188" fill="none" xmlns="http://www.w3.org/2000/svg">
<path d="M274.719 182.469H23.2812C15.5664 182.469 9.3125 176.215 9.3125 168.5V163.844H288.688V168.5C288.688 176.215 282.434 182.469 274.719 182.469Z" fill="#AEA8AF"/>
<path d="M190.906 0.875H107.094C104.522 0.875 102.438 2.95984 102.438 5.53125V163.844H195.562V5.53125C195.562 2.95984 193.478 0.875 190.906 0.875Z" fill="#FADC8C"/>
<path d="M130.375 0.875H107.094C104.522 0.875 102.438 2.95984 102.438 5.53125V163.844H125.719V5.53125C125.719 2.95984 127.804 0.875 130.375 0.875Z" fill="#F5C978"/>
<path d="M97.7812 56.75H13.9688C11.3973 56.75 9.3125 58.8348 9.3125 61.4062V163.844H102.438V61.4062C102.438 58.8348 100.353 56.75 97.7812 56.75Z" fill="#DBD9DC"/>
<path d="M37.25 56.75H13.9688C11.3973 56.75 9.3125 58.8348 9.3125 61.4062V163.844H32.5938V61.4062C32.5938 58.8348 34.6786 56.75 37.25 56.75Z" fill="#C9C6CA"/>
<path d="M284.031 84.6875H200.219C197.647 84.6875 195.562 86.7723 195.562 89.3438V163.844H288.688V89.3438C288.688 86.7723 286.603 84.6875 284.031 84.6875Z" fill="#E6B984"/>
<path d="M223.5 84.6875H200.219C197.647 84.6875 195.562 86.7723 195.562 89.3438V163.844H218.844V89.3438C218.844 86.7723 220.929 84.6875 223.5 84.6875Z" fill="#E1A564"/>
<path d="M153.656 107.969V52.0938C156.23 52.0938 158.312 50.0089 158.312 47.4375C158.312 44.8661 156.23 42.7812 153.656 42.7812H144.344C141.77 42.7812 139.688 44.8661 139.688 47.4375C139.688 50.0089 141.77 52.0938 144.344 52.0938V107.969C141.77 107.969 139.688 110.054 139.688 112.625C139.688 115.196 141.77 117.281 144.344 117.281H153.656C156.23 117.281 158.312 115.196 158.312 112.625C158.312 110.054 156.23 107.969 153.656 107.969Z" fill="#FDF6D2"/>
<path d="M223.5 140.562V107.969C226.074 107.969 228.156 105.884 228.156 103.312C228.156 100.741 226.074 98.6562 223.5 98.6562H214.188C211.614 98.6562 209.531 100.741 209.531 103.312C209.531 105.884 211.614 107.969 214.188 107.969V140.562C211.614 140.562 209.531 142.647 209.531 145.219C209.531 147.79 211.614 149.875 214.188 149.875H223.5C226.074 149.875 228.156 147.79 228.156 145.219C228.156 142.647 226.074 140.562 223.5 140.562Z" fill="#FDEBC8"/>
<path d="M246.781 140.562V107.969C249.355 107.969 251.438 105.884 251.438 103.312C251.438 100.741 249.355 98.6562 246.781 98.6562H237.469C234.895 98.6562 232.812 100.741 232.812 103.312C232.812 105.884 234.895 107.969 237.469 107.969V140.562C234.895 140.562 232.812 142.647 232.812 145.219C232.812 147.79 234.895 149.875 237.469 149.875H246.781C249.355 149.875 251.438 147.79 251.438 145.219C251.438 142.647 249.355 140.562 246.781 140.562Z" fill="#FDEBC8"/>
<path d="M46.5625 131.25V89.3438C49.1362 89.3438 51.2188 87.2589 51.2188 84.6875C51.2188 82.1161 49.1362 80.0312 46.5625 80.0312H37.25C34.6763 80.0312 32.5938 82.1161 32.5938 84.6875C32.5938 87.2589 34.6763 89.3438 37.25 89.3438V131.25C34.6763 131.25 32.5938 133.335 32.5938 135.906C32.5938 138.478 34.6763 140.562 37.25 140.562H46.5625C49.1362 140.562 51.2188 138.478 51.2188 135.906C51.2188 133.335 49.1362 131.25 46.5625 131.25Z" fill="white"/>
<path d="M69.8438 131.25V89.3438C72.4175 89.3438 74.5 87.2589 74.5 84.6875C74.5 82.1161 72.4175 80.0312 69.8438 80.0312H60.5312C57.9575 80.0312 55.875 82.1161 55.875 84.6875C55.875 87.2589 57.9575 89.3438 60.5312 89.3438V131.25C57.9575 131.25 55.875 133.335 55.875 135.906C55.875 138.478 57.9575 140.562 60.5312 140.562H69.8438C72.4175 140.562 74.5 138.478 74.5 135.906C74.5 133.335 72.4175 131.25 69.8438 131.25Z" fill="white"/>
<path d="M270.062 140.562V107.969C272.636 107.969 274.719 105.884 274.719 103.312C274.719 100.741 272.636 98.6562 270.062 98.6562H260.75C258.176 98.6562 256.094 100.741 256.094 103.312C256.094 105.884 258.176 107.969 260.75 107.969V140.562C258.176 140.562 256.094 142.647 256.094 145.219C256.094 147.79 258.176 149.875 260.75 149.875H270.062C272.636 149.875 274.719 147.79 274.719 145.219C274.719 142.647 272.636 140.562 270.062 140.562Z" fill="#FDEBC8"/>
<path d="M293.344 168.5H4.65625C2.08251 168.5 0 166.415 0 163.844C0 161.272 2.08251 159.188 4.65625 159.188H293.344C295.917 159.188 298 161.272 298 163.844C298 166.415 295.917 168.5 293.344 168.5Z" fill="#867E88"/>
<path d="M265.406 187.125H32.5938C30.0223 187.125 27.9375 185.04 27.9375 182.469C27.9375 179.897 30.0223 177.812 32.5938 177.812H265.406C267.978 177.812 270.062 179.897 270.062 182.469C270.062 185.04 267.978 187.125 265.406 187.125Z" fill="#C9C6CA"/>
</svg>
