<svg width="298" height="298" viewBox="0 0 298 298" fill="none" xmlns="http://www.w3.org/2000/svg">
<g clip-path="url(#clip0_541_9206)">
<path d="M203.407 95.9688C202.5 95.9688 201.581 95.7145 200.763 95.1825C198.514 93.7199 197.876 90.7108 199.339 88.4606L250.149 10.3223C251.613 8.07221 254.621 7.43373 256.871 8.8987C259.121 10.3613 259.759 13.3704 258.296 15.6206L207.486 93.7589C206.554 95.1901 204.996 95.9688 203.407 95.9688Z" fill="#D6CCC5"/>
<path d="M202.123 97.9524C201.376 97.9524 200.62 97.7795 199.91 97.4158L151.303 72.4944C148.913 71.2698 147.971 68.3421 149.194 65.9541C150.42 63.566 153.348 62.6231 155.735 63.8471L204.343 88.7685C206.731 89.9931 207.675 92.9207 206.45 95.3088C205.59 96.9874 203.888 97.9524 202.123 97.9524Z" fill="#D6CCC5"/>
<path d="M96.7144 133.744C95.626 133.744 94.5323 133.381 93.6267 132.635C91.5564 130.928 91.2607 127.866 92.9673 125.795L145.01 62.6422C146.717 60.5713 149.778 60.2762 151.85 61.9822C153.92 63.6893 154.216 66.7508 152.51 68.8222L100.467 131.975C99.5058 133.141 98.1153 133.744 96.7144 133.744Z" fill="#D6CCC5"/>
<path d="M95.4904 135.227C94.7174 135.227 93.9323 135.042 93.2024 134.651L43.5313 108.061C41.1659 106.795 40.2748 103.85 41.5413 101.484C42.8078 99.1193 45.7523 98.2253 48.1183 99.4941L97.7882 126.084C100.154 127.35 101.045 130.295 99.7782 132.661C98.9034 134.295 97.2254 135.227 95.4904 135.227Z" fill="#D6CCC5"/>
<path d="M255.367 21.8932C261.27 21.8932 266.056 17.1078 266.056 11.2048C266.056 5.30173 261.27 0.516357 255.367 0.516357C249.464 0.516357 244.679 5.30173 244.679 11.2048C244.679 17.1078 249.464 21.8932 255.367 21.8932Z" fill="#04C051"/>
<path d="M148.761 76.4237C154.664 76.4237 159.449 71.6383 159.449 65.7353C159.449 59.8322 154.664 55.0469 148.761 55.0469C142.858 55.0469 138.072 59.8322 138.072 65.7353C138.072 71.6383 142.858 76.4237 148.761 76.4237Z" fill="#04C051"/>
<path d="M95.4962 141.058C101.399 141.058 106.185 136.272 106.185 130.369C106.185 124.466 101.399 119.681 95.4962 119.681C89.5932 119.681 84.8078 124.466 84.8078 130.369C84.8078 136.272 89.5932 141.058 95.4962 141.058Z" fill="#F44321"/>
<path d="M42.128 112.489C48.0311 112.489 52.8164 107.703 52.8164 101.8C52.8164 95.8972 48.0311 91.1118 42.128 91.1118C36.2249 91.1118 31.4396 95.8972 31.4396 101.8C31.4396 107.703 36.2249 112.489 42.128 112.489Z" fill="#04C051"/>
<path d="M282.173 139.947L282.158 122.881L282.116 85.8782C282.109 79.509 276.941 74.3517 270.573 74.3586L240.303 74.3907C233.934 74.3976 228.777 79.5661 228.784 85.9358L228.991 281.919L282.325 281.863L282.173 139.947Z" fill="#04C051"/>
<path d="M228.992 281.919L228.871 167.763C228.864 161.394 223.695 156.235 217.326 156.243L187.056 156.276C180.687 156.283 175.53 161.45 175.537 167.82L175.657 281.976L228.992 281.919Z" fill="#F44321"/>
<path d="M175.657 281.976L175.507 140.406C175.5 134.037 170.331 128.879 163.963 128.886L133.694 128.918C127.325 128.925 122.168 134.094 122.175 140.463L122.325 282.033L175.657 281.976Z" fill="#04C051"/>
<path d="M122.325 282.033L122.243 205.04C122.236 198.671 117.067 193.513 110.699 193.52L80.4297 193.553C74.0606 193.56 68.902 198.728 68.9096 205.097L68.9911 282.09L122.325 282.033Z" fill="#F44321"/>
<path d="M68.9905 282.09L68.8776 176.472C68.8712 170.103 63.7027 164.946 57.3342 164.953L27.065 164.985C20.6947 164.992 15.5373 170.16 15.5449 176.529L15.6578 282.146L68.9905 282.09Z" fill="#04C051"/>
<path d="M202.122 103.775C208.025 103.775 212.81 98.9897 212.81 93.0866C212.81 87.1836 208.025 82.3982 202.122 82.3982C196.219 82.3982 191.434 87.1836 191.434 93.0866C191.434 98.9897 196.219 103.775 202.122 103.775Z" fill="#F44321"/>
<path d="M239.233 85.9353C239.226 79.5662 244.383 74.3972 250.752 74.3902L270.789 74.3692C270.716 74.3681 270.645 74.3582 270.572 74.3582L240.303 74.3902C233.933 74.3972 228.776 79.5656 228.783 85.9353L228.991 281.919L239.44 281.907L239.233 85.9353Z" fill="#02A544"/>
<path d="M185.987 167.819C185.979 161.45 191.137 156.282 197.506 156.275L217.547 156.253C217.472 156.252 217.4 156.242 217.326 156.242L187.056 156.275C180.687 156.282 175.53 161.45 175.537 167.819L175.657 281.975L186.106 281.964L185.987 167.819Z" fill="#C6281C"/>
<path d="M132.625 140.463C132.617 134.094 137.774 128.925 144.144 128.918L164.179 128.897C164.107 128.896 164.036 128.886 163.963 128.886L133.693 128.918C127.324 128.925 122.167 134.093 122.174 140.463L122.324 282.033L132.775 282.022L132.625 140.463Z" fill="#02A544"/>
<path d="M79.3582 205.097C79.3518 198.728 84.5092 193.559 90.8784 193.553L110.919 193.531C110.845 193.53 110.772 193.52 110.698 193.52L80.4286 193.553C74.0594 193.56 68.9009 198.728 68.9084 205.097L68.9899 282.09L79.4403 282.079L79.3582 205.097Z" fill="#C6281C"/>
<path d="M25.9947 176.53C25.9871 170.16 31.1445 164.991 37.5148 164.985L57.5547 164.963C57.4802 164.962 57.4081 164.952 57.3336 164.952L27.0644 164.985C20.6941 164.991 15.5367 170.16 15.5443 176.53L15.6572 282.146L26.1076 282.135L25.9947 176.53Z" fill="#02A544"/>
<path d="M289.679 280.559L228.918 280.623L160.403 280.697L137.579 280.721L99.6426 280.761L8.30326 280.859C3.71278 280.863 -0.00524038 284.588 -2.10106e-06 289.18C0.00465415 293.77 3.72965 297.488 8.3213 297.484L99.6606 297.387L137.597 297.346L160.422 297.322L212.392 297.266L229.585 297.249L289.698 297.184C294.289 297.179 298.006 293.454 298.001 288.862C297.995 284.272 294.27 280.554 289.679 280.559Z" fill="#D6CCC5"/>
<path opacity="0.1" d="M18.753 280.859L19.6307 280.857V280.846L8.30326 280.858C3.71278 280.863 -0.00524038 284.588 -2.10106e-06 289.18C0.00465415 293.77 3.72965 297.488 8.3213 297.484L18.5505 297.473C14.0619 297.359 10.4544 293.695 10.4492 289.179C10.4445 284.588 14.1614 280.863 18.753 280.859Z" fill="#231F20"/>
</g>
<defs>
<clipPath id="clip0_541_9206">
<rect width="298" height="298" fill="white"/>
</clipPath>
</defs>
</svg>
