<svg width="249" height="322" viewBox="0 0 249 322" fill="none" xmlns="http://www.w3.org/2000/svg">
<path d="M236.758 113.997L134.32 11.5592C128.908 6.14693 120.434 6.14693 115.022 11.5592L12.5844 113.997C8.85976 117.721 7.14192 123.43 9.73271 129.056C10.76 131.663 12.6677 133.607 14.4722 134.857C16.4761 136.244 19.1787 137.354 22.2335 137.354H71.2293V300.583C71.2293 304.15 72.451 307.705 75.1333 310.388C77.8156 313.07 81.3708 314.292 84.9377 314.292H163.783C167.35 314.292 170.906 313.07 173.588 310.388C176.27 307.705 177.492 304.15 177.492 300.583V137.354H226.488C230.583 137.354 236.622 135.363 238.891 129.417C240.303 127.061 240.975 124.337 240.596 121.491C240.17 118.297 238.534 115.773 236.758 113.997Z" fill="#04C051" stroke="#4D4D4D" stroke-width="15"/>
</svg>
