<svg width="249" height="322" viewBox="0 0 249 322" fill="none" xmlns="http://www.w3.org/2000/svg">
<path d="M236.758 207.795L134.32 310.233C128.908 315.645 120.434 315.645 115.022 310.233L12.5844 207.795C8.85976 204.07 7.14192 198.362 9.73271 192.736C10.76 190.129 12.6677 188.184 14.4722 186.935C16.4761 185.548 19.1787 184.438 22.2335 184.438H71.2293V21.2084C71.2293 17.6416 72.451 14.0864 75.1333 11.4041C77.8156 8.72177 81.3708 7.50009 84.9377 7.50009H163.783C167.35 7.50009 170.906 8.72177 173.588 11.4041C176.27 14.0864 177.492 17.6416 177.492 21.2084V184.438H226.488C230.583 184.438 236.622 186.429 238.891 192.375C240.303 194.731 240.975 197.455 240.596 200.301C240.17 203.495 238.534 206.019 236.758 207.795Z" fill="#E2561A" stroke="#4D4D4D" stroke-width="15"/>
</svg>
