<svg width="298" height="298" viewBox="0 0 298 298" fill="none" xmlns="http://www.w3.org/2000/svg">
<path d="M41.9062 288.688H214.188C228.988 288.689 243.348 283.653 254.906 274.409C266.465 265.165 274.533 252.262 277.784 237.823C281.035 223.385 279.276 208.269 272.795 194.963C266.314 181.657 255.498 170.953 242.125 164.611V69.8438C242.125 69.2323 242.005 68.6268 241.771 68.0618C241.537 67.4969 241.194 66.9836 240.761 66.5512L184.886 10.6762C184.454 10.2438 183.941 9.90086 183.376 9.66688C182.811 9.4329 182.205 9.31248 181.594 9.3125H41.9062C35.7338 9.31943 29.8162 11.7745 25.4516 16.1391C21.087 20.5037 18.6319 26.4213 18.625 32.5938V265.406C18.6319 271.579 21.087 277.496 25.4516 281.861C29.8162 286.226 35.7338 288.681 41.9062 288.688V288.688ZM270.062 223.5C270.062 234.551 266.785 245.354 260.646 254.542C254.506 263.731 245.78 270.893 235.57 275.122C225.36 279.351 214.126 280.457 203.287 278.301C192.448 276.145 182.492 270.824 174.678 263.01C166.864 255.195 161.542 245.239 159.386 234.401C157.23 223.562 158.337 212.327 162.566 202.118C166.795 191.908 173.956 183.181 183.145 177.042C192.334 170.902 203.136 167.625 214.188 167.625C229.001 167.642 243.204 173.534 253.679 184.009C264.154 194.484 270.046 208.686 270.062 223.5V223.5ZM186.25 25.2095L226.228 65.1875H200.219C196.515 65.1833 192.965 63.7103 190.346 61.0916C187.727 58.4728 186.254 54.9222 186.25 51.2188V25.2095ZM27.9375 32.5938C27.9418 28.8903 29.4149 25.3398 32.0336 22.7211C34.6523 20.1024 38.2028 18.6293 41.9062 18.625H176.938V51.2188C176.944 57.3912 179.399 63.3088 183.764 67.6734C188.129 72.038 194.046 74.4931 200.219 74.5H232.812V161.028C217.599 156.489 201.251 157.658 186.839 164.318C172.427 170.977 160.94 182.667 154.536 197.195C148.133 211.723 147.251 228.088 152.059 243.219C156.866 258.351 167.03 271.207 180.644 279.375H41.9062C38.2028 279.371 34.6523 277.898 32.0336 275.279C29.4149 272.66 27.9418 269.11 27.9375 265.406V32.5938Z" fill="black"/>
<path d="M93.125 97.7812C93.125 99.0162 93.6156 100.201 94.4888 101.074C95.362 101.947 96.5463 102.438 97.7812 102.438H209.531C210.766 102.438 211.951 101.947 212.824 101.074C213.697 100.201 214.188 99.0162 214.188 97.7812C214.188 96.5463 213.697 95.362 212.824 94.4888C211.951 93.6156 210.766 93.125 209.531 93.125H97.7812C96.5463 93.125 95.362 93.6156 94.4888 94.4888C93.6156 95.362 93.125 96.5463 93.125 97.7812Z" fill="black"/>
<path d="M51.2188 130.375H144.344C145.579 130.375 146.763 129.884 147.636 129.011C148.509 128.138 149 126.954 149 125.719C149 124.484 148.509 123.299 147.636 122.426C146.763 121.553 145.579 121.062 144.344 121.062H51.2188C49.9838 121.062 48.7995 121.553 47.9263 122.426C47.0531 123.299 46.5625 124.484 46.5625 125.719C46.5625 126.954 47.0531 128.138 47.9263 129.011C48.7995 129.884 49.9838 130.375 51.2188 130.375V130.375Z" fill="black"/>
<path d="M162.969 149H125.719C124.484 149 123.299 149.491 122.426 150.364C121.553 151.237 121.062 152.421 121.062 153.656C121.062 154.891 121.553 156.076 122.426 156.949C123.299 157.822 124.484 158.312 125.719 158.312H162.969C164.204 158.312 165.388 157.822 166.261 156.949C167.134 156.076 167.625 154.891 167.625 153.656C167.625 152.421 167.134 151.237 166.261 150.364C165.388 149.491 164.204 149 162.969 149V149Z" fill="black"/>
<path d="M51.2188 186.25H135.031C136.266 186.25 137.451 185.759 138.324 184.886C139.197 184.013 139.688 182.829 139.688 181.594C139.688 180.359 139.197 179.174 138.324 178.301C137.451 177.428 136.266 176.938 135.031 176.938H51.2188C49.9838 176.938 48.7995 177.428 47.9263 178.301C47.0531 179.174 46.5625 180.359 46.5625 181.594C46.5625 182.829 47.0531 184.013 47.9263 184.886C48.7995 185.759 49.9838 186.25 51.2188 186.25V186.25Z" fill="black"/>
<path d="M51.2188 102.438H79.1562C80.3912 102.438 81.5755 101.947 82.4487 101.074C83.3219 100.201 83.8125 99.0162 83.8125 97.7812C83.8125 96.5463 83.3219 95.362 82.4487 94.4888C81.5755 93.6156 80.3912 93.125 79.1562 93.125H51.2188C49.9838 93.125 48.7995 93.6156 47.9263 94.4888C47.0531 95.362 46.5625 96.5463 46.5625 97.7812C46.5625 99.0162 47.0531 100.201 47.9263 101.074C48.7995 101.947 49.9838 102.438 51.2188 102.438V102.438Z" fill="black"/>
<path d="M209.531 121.062H162.969C161.734 121.062 160.549 121.553 159.676 122.426C158.803 123.299 158.312 124.484 158.312 125.719C158.312 126.954 158.803 128.138 159.676 129.011C160.549 129.884 161.734 130.375 162.969 130.375H209.531C210.766 130.375 211.951 129.884 212.824 129.011C213.697 128.138 214.188 126.954 214.188 125.719C214.188 124.484 213.697 123.299 212.824 122.426C211.951 121.553 210.766 121.062 209.531 121.062Z" fill="black"/>
<path d="M51.2188 158.312H107.094C108.329 158.312 109.513 157.822 110.386 156.949C111.259 156.076 111.75 154.891 111.75 153.656C111.75 152.421 111.259 151.237 110.386 150.364C109.513 149.491 108.329 149 107.094 149H51.2188C49.9838 149 48.7995 149.491 47.9263 150.364C47.0531 151.237 46.5625 152.421 46.5625 153.656C46.5625 154.891 47.0531 156.076 47.9263 156.949C48.7995 157.822 49.9838 158.312 51.2188 158.312V158.312Z" fill="black"/>
<path d="M125.719 232.812H107.094C105.859 232.812 104.674 233.303 103.801 234.176C102.928 235.049 102.438 236.234 102.438 237.469C102.438 238.704 102.928 239.888 103.801 240.761C104.674 241.634 105.859 242.125 107.094 242.125H125.719C126.954 242.125 128.138 241.634 129.011 240.761C129.884 239.888 130.375 238.704 130.375 237.469C130.375 236.234 129.884 235.049 129.011 234.176C128.138 233.303 126.954 232.812 125.719 232.812Z" fill="black"/>
<path d="M51.2188 242.125H88.4688C89.7037 242.125 90.888 241.634 91.7612 240.761C92.6344 239.888 93.125 238.704 93.125 237.469C93.125 236.234 92.6344 235.049 91.7612 234.176C90.888 233.303 89.7037 232.812 88.4688 232.812H51.2188C49.9838 232.812 48.7995 233.303 47.9263 234.176C47.0531 235.049 46.5625 236.234 46.5625 237.469C46.5625 238.704 47.0531 239.888 47.9263 240.761C48.7995 241.634 49.9838 242.125 51.2188 242.125V242.125Z" fill="black"/>
<path d="M51.2188 214.188H79.1562C80.3912 214.188 81.5755 213.697 82.4487 212.824C83.3219 211.951 83.8125 210.766 83.8125 209.531C83.8125 208.296 83.3219 207.112 82.4487 206.239C81.5755 205.366 80.3912 204.875 79.1562 204.875H51.2188C49.9838 204.875 48.7995 205.366 47.9263 206.239C47.0531 207.112 46.5625 208.296 46.5625 209.531C46.5625 210.766 47.0531 211.951 47.9263 212.824C48.7995 213.697 49.9838 214.188 51.2188 214.188V214.188Z" fill="black"/>
<path d="M51.2188 74.5H107.094C108.329 74.5 109.513 74.0094 110.386 73.1362C111.259 72.263 111.75 71.0787 111.75 69.8438C111.75 68.6088 111.259 67.4245 110.386 66.5513C109.513 65.6781 108.329 65.1875 107.094 65.1875H51.2188C49.9838 65.1875 48.7995 65.6781 47.9263 66.5513C47.0531 67.4245 46.5625 68.6088 46.5625 69.8438C46.5625 71.0787 47.0531 72.263 47.9263 73.1362C48.7995 74.0094 49.9838 74.5 51.2188 74.5V74.5Z" fill="black"/>
<path d="M125.719 204.875H97.7812C96.5463 204.875 95.362 205.366 94.4888 206.239C93.6156 207.112 93.125 208.296 93.125 209.531C93.125 210.766 93.6156 211.951 94.4888 212.824C95.362 213.697 96.5463 214.188 97.7812 214.188H125.719C126.954 214.188 128.138 213.697 129.011 212.824C129.884 211.951 130.375 210.766 130.375 209.531C130.375 208.296 129.884 207.112 129.011 206.239C128.138 205.366 126.954 204.875 125.719 204.875Z" fill="black"/>
<path d="M189.543 234.176C189.11 233.744 188.597 233.401 188.032 233.167C187.467 232.933 186.862 232.812 186.25 232.812C185.639 232.812 185.033 232.933 184.468 233.167C183.903 233.401 183.39 233.744 182.958 234.176C182.525 234.609 182.182 235.122 181.948 235.687C181.714 236.252 181.594 236.857 181.594 237.469C181.594 238.08 181.714 238.686 181.948 239.251C182.182 239.816 182.525 240.329 182.958 240.761L201.583 259.386C202.015 259.819 202.528 260.162 203.093 260.396C203.658 260.63 204.264 260.75 204.875 260.75C205.028 260.75 205.181 260.742 205.334 260.727C206.02 260.659 206.682 260.44 207.272 260.086C207.863 259.731 208.368 259.25 208.75 258.677L246 202.802C246.677 201.774 246.92 200.52 246.675 199.314C246.431 198.108 245.719 197.048 244.695 196.365C243.671 195.683 242.419 195.433 241.211 195.671C240.004 195.909 238.94 196.615 238.252 197.636L204.152 248.785L189.543 234.176Z" fill="black"/>
</svg>
