<svg width="298" height="298" viewBox="0 0 298 298" fill="none" xmlns="http://www.w3.org/2000/svg">
<path d="M179.127 257.479H118.873V281.645C118.873 288.266 124.24 293.634 130.862 293.634H167.137C173.759 293.634 179.127 288.266 179.127 281.645V257.479Z" fill="#D8ECFE"/>
<path d="M148.319 293.635H130.86C124.243 293.635 118.871 288.269 118.871 281.646V257.477H136.33V281.646C136.33 288.269 141.702 293.635 148.319 293.635Z" fill="#B3DAFE"/>
<path d="M185.155 257.421H112.845C107.853 257.421 103.806 253.373 103.806 248.382C103.806 243.39 107.853 239.343 112.845 239.343H185.155C190.147 239.343 194.193 243.39 194.193 248.382C194.194 253.374 190.147 257.421 185.155 257.421Z" fill="#EAF6FF"/>
<path d="M130.307 257.419H112.848C107.854 257.419 103.804 253.374 103.804 248.381C103.804 245.884 104.816 243.626 106.452 241.991C108.087 240.355 110.351 239.343 112.848 239.343H130.307C127.81 239.343 125.546 240.355 123.911 241.991C122.276 243.626 121.263 245.884 121.263 248.381C121.263 253.374 125.314 257.419 130.307 257.419Z" fill="#D8ECFE"/>
<path d="M164.062 176.198C164.062 184.52 157.322 191.265 149 191.265V235.1H118.871V226.277C118.871 220.504 115.577 215.208 110.357 212.735C79.7738 198.243 58.6132 167.102 58.6132 131.013V130.909H88.7421V131.008C88.7421 139.324 95.4872 146.075 103.804 146.075C112.126 146.075 118.871 139.324 118.871 131.008V130.909H149V161.137C157.322 161.137 164.062 167.882 164.062 176.198V176.198Z" fill="#AEE69C"/>
<path d="M130.511 226.277V235.1H118.871V226.277C118.871 220.504 115.577 215.208 110.357 212.735C79.7738 198.243 58.6132 167.102 58.6132 131.013V130.909H70.2527V131.013C70.2527 167.102 91.4134 198.243 121.996 212.735C127.217 215.208 130.511 220.504 130.511 226.277Z" fill="#89DAA4"/>
<path d="M239.387 130.909V131.008C239.387 167.084 218.249 198.22 187.678 212.717C182.446 215.196 179.129 220.487 179.129 226.277V239.372H149V191.265C157.322 191.265 164.062 184.52 164.062 176.198C164.062 167.882 157.322 161.137 149 161.137V130.909H179.129C179.181 122.633 185.909 115.94 194.196 115.94C202.478 115.94 209.205 122.633 209.258 130.909H239.387Z" fill="#8AC9FE"/>
<path d="M239.387 130.909H209.258C209.205 122.633 202.478 115.94 194.196 115.94C185.909 115.94 179.181 122.633 179.129 130.909H149V100.879C140.678 100.879 133.938 94.1335 133.938 85.8113C133.938 77.489 140.678 70.7497 149 70.7497V40.6208C198.887 40.6208 239.334 81.0333 239.387 130.909V130.909Z" fill="#FFFA77"/>
<path d="M133.938 85.8113C133.938 94.1336 140.678 100.879 149 100.879V130.909H118.871V131.008C118.871 139.324 112.126 146.075 103.804 146.075C95.4872 146.075 88.7421 139.324 88.7421 131.008V130.909H58.6132C58.6655 80.8936 98.9849 40.6208 149 40.6208V70.7497C140.678 70.7497 133.938 77.489 133.938 85.8113V85.8113Z" fill="#FE646F"/>
<path d="M149 40.6208V41.3599C104.514 47.0342 70.2993 84.8394 70.2527 130.909H58.6132C58.6655 80.8936 98.9849 40.6208 149 40.6208Z" fill="#FD4755"/>
<path d="M229.717 81.3621C228.451 79.31 225.762 78.6722 223.711 79.9368C221.659 81.2014 221.021 83.8907 222.285 85.9428C229.839 98.1969 234.153 112.152 234.894 126.543H213.105C211.077 117.979 203.349 111.576 194.196 111.576C185.04 111.576 177.31 117.979 175.282 126.543H153.365V100.877C153.365 98.4669 151.412 96.5127 149.001 96.5127C143.101 96.5127 138.302 91.7131 138.302 85.8142C138.302 79.9153 143.101 75.1157 149.001 75.1157C151.412 75.1157 153.365 73.1614 153.365 70.7509V45.0933C175.377 46.1781 195.75 55.4571 211.124 71.4999C213.163 73.2481 215.22 73.2918 217.295 71.6314C219.035 69.9635 219.094 67.2002 217.426 65.4601C199.393 46.6419 175.115 36.2728 149.06 36.2571C149.04 36.2571 149.021 36.2542 149.001 36.2542C148.981 36.2542 148.962 36.2571 148.942 36.2571C125.916 36.2711 103.749 44.5881 86.5184 59.6799C84.7049 61.2681 84.5222 64.0261 86.111 65.839C87.6992 67.653 90.4572 67.8352 92.27 66.247C106.832 53.4924 125.283 46.0727 144.636 45.0997V66.8807C136.018 68.867 129.572 76.6026 129.572 85.8148C129.572 95.0269 136.018 102.763 144.636 104.749V126.544H118.873C116.462 126.544 114.509 128.498 114.509 130.909V131.01C114.509 136.91 109.707 141.709 103.805 141.709C97.9053 141.709 93.1063 136.909 93.1063 131.01V130.909C93.1063 128.498 91.1526 126.544 88.7415 126.544H63.0944C63.9551 109.44 69.744 93.2769 79.9729 79.5585C81.4138 77.6258 81.0152 74.8911 79.083 73.4501C77.1514 72.0097 74.4156 72.4078 72.9746 74.3399C60.7473 90.7377 54.2722 110.298 54.2483 130.91C53.3759 166.91 76.3489 201.452 108.487 216.68C112.143 218.413 114.506 222.18 114.506 226.278V234.979C105.546 234.979 99.4382 239.779 99.4382 248.382C99.4382 256.978 105.351 261.792 114.506 261.785V281.648C114.506 290.289 122.259 298.001 130.86 298.001H167.14C175.742 298.001 183.494 290.291 183.494 281.648V261.785C193.716 261.793 198.565 256.361 198.562 248.382C198.558 240.063 193.328 234.979 183.494 234.979V226.278C183.494 222.179 185.87 218.405 189.549 216.662C222.611 200.984 243.166 167.255 243.752 130.906C243.734 113.36 238.88 96.2281 229.717 81.3621V81.3621ZM112.225 208.79C83.598 195.225 64.6768 166.684 63.0979 135.272H84.8475C86.796 143.941 94.556 150.437 103.804 150.437C113.055 150.437 120.817 143.941 122.766 135.272H144.635V161.135C144.635 163.546 146.588 165.5 148.999 165.5C154.899 165.5 159.698 170.3 159.698 176.199C159.698 182.098 154.899 186.897 148.999 186.897C146.588 186.897 144.635 188.851 144.635 191.262V234.977H123.235V226.276C123.236 218.823 118.914 211.959 112.225 208.79ZM167.14 289.27H130.86C125.312 289.27 122.963 284.332 123.236 279.958H174.763C174.773 284.614 173.297 289.27 167.14 289.27ZM185.152 253.054H158.172C155.761 253.054 153.807 255.008 153.807 257.419C153.807 257.429 153.808 257.438 153.808 257.448C153.808 257.458 153.807 257.467 153.807 257.477C153.807 259.887 155.761 261.842 158.172 261.842H174.764V271.228H123.236V261.842H139.153C141.565 261.842 143.518 259.887 143.518 257.477C143.518 257.467 143.517 257.458 143.517 257.448C143.517 257.438 143.518 257.429 143.518 257.419C143.518 255.008 141.565 253.054 139.153 253.054H112.848C105.934 253.159 105.74 243.707 112.848 243.707H185.153C191.193 243.707 192.066 253.061 185.152 253.054ZM185.809 208.772C179.099 211.952 174.763 218.823 174.763 226.277V234.978H153.364V195.133C161.982 193.147 168.428 185.411 168.428 176.199C168.428 166.987 161.982 159.251 153.364 157.265V135.272H179.127C181.526 135.272 183.476 133.334 183.491 130.935C183.529 125.074 188.331 120.305 194.195 120.305C200.057 120.305 204.856 125.074 204.894 130.935C204.909 133.334 206.86 135.272 209.259 135.272H234.901C233.321 166.675 214.414 195.208 185.809 208.772Z" fill="black"/>
<path d="M149 26.8076C146.589 26.8076 144.635 24.8533 144.635 22.4428V4.36483C144.635 1.95428 146.589 0 149 0C151.411 0 153.365 1.95428 153.365 4.36483V22.4428C153.365 24.8533 151.411 26.8076 149 26.8076Z" fill="black"/>
<path d="M210.074 43.1722C207.98 41.9774 207.271 39.2974 208.476 37.2098L217.515 21.5541C218.72 19.4665 221.388 18.7501 223.477 19.9566C225.565 21.1618 226.28 23.8314 225.075 25.9189L216.036 41.5747C215.228 42.9743 212.435 44.52 210.074 43.1722Z" fill="black"/>
<path d="M254.784 87.8808C253.578 85.7933 254.294 83.1238 256.381 81.9185L272.036 72.8798C274.123 71.6745 276.794 72.3892 277.999 74.4773C279.204 76.5649 278.489 79.2344 276.401 80.4397L260.746 89.4784C258.266 90.9327 255.591 89.2817 254.784 87.8808Z" fill="black"/>
<path d="M20.0014 223.433C18.884 221.297 19.5114 218.675 21.5989 217.47L37.2541 208.432C39.3405 207.226 42.0106 207.941 43.2164 210.029C44.4217 212.117 43.7065 214.786 41.6189 215.991L25.9637 225.03C23.4385 226.388 21.1106 225.553 20.0014 223.433V223.433Z" fill="black"/>
<path d="M81.9633 41.5746L72.9246 25.9189C71.7193 23.8313 72.4346 21.1618 74.5221 19.9565C76.6085 18.7507 79.2792 19.4659 80.4845 21.5541L89.5232 37.2098C90.7284 39.2974 89.9625 41.8837 87.9256 43.1722C85.5645 44.6655 82.7716 42.9749 81.9633 41.5746Z" fill="black"/>
<path d="M37.2541 89.4789L21.5989 80.4402C19.5114 79.235 18.7961 76.5654 20.0014 74.4779C21.2061 72.3898 23.8744 71.6745 25.9637 72.8804L41.6189 81.919C43.7065 83.1243 44.7336 86.008 43.2164 87.8814C41.3343 90.2052 39.4429 90.4962 37.2541 89.4789Z" fill="black"/>
<path d="M272.036 225.031L256.381 215.992C254.294 214.787 253.578 212.117 254.784 210.03C255.988 207.941 258.659 207.227 260.746 208.432L276.401 217.471C278.489 218.676 279.3 221.404 277.999 223.433C276.598 225.617 274.562 226.533 272.036 225.031Z" fill="black"/>
<path d="M22.487 153.32H4.40963C1.9985 153.32 0.0447998 151.366 0.0447998 148.955C0.0447998 146.545 1.9985 144.59 4.40963 144.59H22.4876C24.8987 144.59 26.8524 146.545 26.8524 148.955C26.8524 151.366 24.8981 153.32 22.487 153.32Z" fill="black"/>
<path d="M293.59 153.32H275.512C273.101 153.32 271.148 151.366 271.148 148.955C271.148 146.545 273.101 144.59 275.512 144.59H293.59C296.002 144.59 297.955 146.545 297.955 148.955C297.955 151.366 296.002 153.32 293.59 153.32Z" fill="black"/>
</svg>
