<svg width="298" height="298" viewBox="0 0 298 298" fill="none" xmlns="http://www.w3.org/2000/svg">
<path fill-rule="evenodd" clip-rule="evenodd" d="M21.8262 39.2871V258.713C21.8262 268.282 29.7179 276.174 39.2871 276.174H258.713C268.282 276.174 276.174 268.282 276.174 258.713V39.2871C276.174 29.7179 268.282 21.8262 258.713 21.8262H39.2871C29.7179 21.8262 21.8262 29.7179 21.8262 39.2871Z" fill="#70ABE2"/>
<path fill-rule="evenodd" clip-rule="evenodd" d="M258.713 276.174H39.2871C29.7179 276.174 21.8262 268.282 21.8262 258.713V39.2871C21.8262 29.7179 29.7179 21.8262 39.2871 21.8262H258.713C268.282 21.8262 276.174 29.7179 276.174 39.2871V258.713C276.174 268.282 268.282 276.174 258.713 276.174ZM258.713 4.36523H39.2871C20.0801 4.36523 4.36523 20.0801 4.36523 39.2871V258.713C4.36523 277.92 20.0801 293.635 39.2871 293.635H258.713C277.92 293.635 293.635 277.92 293.635 258.713V39.2871C293.635 20.0801 277.92 4.36523 258.713 4.36523Z" fill="white"/>
<path fill-rule="evenodd" clip-rule="evenodd" d="M21.8262 39.2871V258.713C21.8262 268.282 29.7179 276.174 39.2871 276.174H52.3828C42.8136 276.174 34.9219 268.282 34.9219 258.713V39.2871C34.9219 29.7179 42.8136 21.8262 52.3828 21.8262H39.2871C29.7179 21.8262 21.8262 29.7179 21.8262 39.2871Z" fill="#0A90CA"/>
<path d="M258.713 65.4785H249.982V56.748H258.713V65.4785ZM258.713 48.0176H249.982V39.2871H258.713V48.0176Z" fill="white"/>
<path d="M242.673 174.268V132.463H254.263V123.732H222.446V132.463H233.943V174.268H242.673Z" fill="black"/>
<path d="M213.353 138.962C213.353 130.565 206.246 123.732 197.509 123.732H182.028L182.02 174.267L190.75 174.268L190.753 155.803L206.545 174.063L213.149 168.351L200.642 153.891C207.883 152.49 213.353 146.329 213.353 138.962V138.962ZM197.49 145.462L190.755 145.491L190.758 132.463H197.509C201.365 132.463 204.624 135.439 204.624 138.962C204.623 142.485 201.365 145.462 197.49 145.462Z" fill="black"/>
<path d="M62.6696 165.537C58.2759 165.537 54.0387 163.757 51.3363 160.774L48.4052 157.54L41.9359 163.402L44.867 166.637C49.1968 171.415 55.8523 174.268 62.6696 174.268C70.9269 174.268 78.1254 168.826 79.4141 161.609C80.3936 156.123 77.86 148.941 67.8107 145.234C62.5369 143.288 57.6374 141.167 56.2836 140.573C55.1789 139.733 54.6457 138.413 54.8506 136.985C54.9798 136.084 55.6218 133.885 58.7793 132.934C65.1048 131.03 70.8821 135.596 71.0747 135.751L74.3999 138.546L80.0176 131.863L76.6762 129.054C76.2961 128.734 67.2409 121.266 56.2609 124.575C50.8142 126.216 46.9618 130.496 46.2086 135.745C45.5049 140.649 47.6293 145.366 51.7536 148.055C51.9468 148.18 52.1488 148.29 52.3595 148.384C52.6005 148.492 58.3323 151.043 64.7894 153.425C69.0929 155.013 71.2907 157.437 70.8198 160.075C70.3402 162.76 67.1606 165.537 62.6696 165.537V165.537Z" fill="black"/>
<path d="M110.265 174.268V132.463H121.855V123.732H90.0378V132.463H101.535V174.268H110.265Z" fill="black"/>
<path d="M158.608 163.71L162.958 175.234L171.126 172.152L152.963 124.023L145.183 124.031L126.862 172.134L135.021 175.242L139.413 163.71H158.608ZM149.055 138.394L155.313 154.979H142.738L149.055 138.394Z" fill="black"/>
<path d="M17.4609 56.748V258.713C17.4609 270.748 27.2519 280.539 39.2871 280.539H258.713C270.748 280.539 280.539 270.748 280.539 258.713V39.2871C280.539 27.2519 270.748 17.4609 258.713 17.4609H39.2871C27.2519 17.4609 17.4609 27.2519 17.4609 39.2871V48.0176H26.1914V39.2871C26.1914 32.1887 32.1887 26.1914 39.2871 26.1914H258.713C265.811 26.1914 271.809 32.1887 271.809 39.2871V258.713C271.809 265.811 265.811 271.809 258.713 271.809H39.2871C32.1887 271.809 26.1914 265.811 26.1914 258.713V56.748H17.4609Z" fill="black"/>
<path d="M232.521 289.27H241.252V298H232.521V289.27Z" fill="black"/>
<path d="M258.713 0H39.2871C17.6239 0 0 17.6239 0 39.2871V258.713C0 280.376 17.6239 298 39.2871 298H223.791V289.27H39.2871C22.4379 289.27 8.73047 275.562 8.73047 258.713V39.2871C8.73047 22.4379 22.4379 8.73047 39.2871 8.73047H258.713C275.562 8.73047 289.27 22.4379 289.27 39.2871V258.713C289.27 275.562 275.562 289.27 258.713 289.27H249.982V298H258.713C280.376 298 298 280.376 298 258.713V39.2871C298 17.6239 280.376 0 258.713 0Z" fill="black"/>
</svg>
