<?xml version="1.0" standalone="no"?>
<!DOCTYPE svg PUBLIC "-//W3C//DTD SVG 20010904//EN"
 "http://www.w3.org/TR/2001/REC-SVG-20010904/DTD/svg10.dtd">
<svg version="1.0" xmlns="http://www.w3.org/2000/svg"
 width="256.000000pt" height="256.000000pt" viewBox="0 0 256.000000 256.000000"
 preserveAspectRatio="xMidYMid meet">

<g transform="translate(0.000000,256.000000) scale(0.100000,-0.100000)"
fill="#000000" stroke="none">
<path d="M1135 2544 c-249 -30 -439 -81 -560 -149 -135 -75 -258 -236 -310
-403 -29 -96 -66 -208 -97 -291 -24 -67 -15 -98 44 -158 l42 -43 -30 -62 c-26
-55 -100 -173 -193 -307 -17 -24 -31 -56 -31 -72 0 -37 39 -81 106 -119 63
-36 66 -49 29 -118 -32 -60 -31 -72 4 -106 25 -24 28 -33 24 -70 -5 -42 -4
-44 42 -76 l47 -32 -7 -74 c-13 -131 32 -219 122 -243 48 -13 124 2 316 65 59
19 116 32 127 29 40 -13 112 -129 151 -244 11 -30 25 -59 32 -63 6 -4 258 -8
558 -8 667 0 612 -17 521 163 -112 220 -147 463 -96 662 23 90 64 168 155 295
97 137 150 244 153 309 1 45 0 46 -30 49 -26 3 -33 -1 -42 -25 -42 -113 -59
-149 -108 -219 -208 -301 -242 -394 -231 -633 7 -173 44 -323 109 -453 l28
-58 -483 0 -483 0 -19 57 c-11 31 -43 92 -71 134 l-52 78 86 31 c172 62 249
119 274 203 8 28 8 43 0 62 -21 47 -82 24 -82 -30 0 -31 -38 -71 -97 -103 -63
-33 -445 -165 -585 -202 -99 -26 -131 -22 -152 18 -19 36 -21 65 -12 138 9 72
-4 107 -56 148 -26 20 -30 28 -20 38 22 22 13 55 -20 81 l-32 25 18 39 c22 50
23 116 2 148 -9 14 -42 39 -72 57 -31 17 -58 37 -61 44 -2 7 27 57 66 111 39
54 96 148 126 208 51 101 55 113 45 145 -5 20 -28 53 -50 75 -22 21 -40 45
-40 53 0 7 14 45 30 84 17 39 40 107 51 151 50 195 144 343 270 422 142 90
477 165 739 165 111 0 140 9 140 45 0 46 -115 56 -335 29z"/>
<path d="M1923 2545 c-20 -14 -33 -45 -47 -116 -3 -15 -16 -31 -31 -37 -23
-11 -32 -8 -78 23 -63 43 -86 44 -130 5 -32 -27 -41 -30 -107 -30 -65 0 -74
-3 -99 -28 -22 -21 -31 -45 -41 -98 -12 -66 -14 -70 -49 -85 l-37 -16 -64 44
c-88 59 -107 57 -181 -14 -80 -79 -83 -99 -26 -187 40 -61 44 -72 34 -95 -18
-44 -24 -47 -96 -60 -101 -18 -116 -38 -116 -148 0 -79 2 -86 26 -107 16 -14
52 -27 97 -35 68 -12 71 -14 85 -49 14 -33 14 -40 -1 -62 -87 -136 -88 -142
-20 -216 79 -86 107 -89 209 -20 51 34 53 35 87 20 19 -7 36 -14 37 -14 2 0 9
-32 16 -72 8 -45 21 -81 35 -97 21 -24 28 -26 109 -26 82 0 88 2 110 27 15 17
27 52 35 96 12 68 14 71 51 85 37 15 38 14 89 -20 102 -68 128 -65 213 26 60
64 60 86 4 171 -43 63 -43 65 -29 100 13 35 17 37 80 49 37 7 79 21 94 32 34
24 31 24 78 -7 29 -20 46 -24 69 -19 38 8 121 96 121 127 0 13 -16 47 -35 75
-31 46 -34 55 -23 78 6 15 22 28 37 31 115 23 131 39 131 130 0 83 -20 107
-98 123 -47 9 -61 16 -70 37 -11 22 -8 31 23 77 48 71 46 89 -18 154 -65 64
-83 66 -154 18 -46 -31 -55 -34 -77 -23 -21 9 -28 23 -37 70 -16 78 -40 98
-123 98 -39 0 -70 -6 -83 -15z m129 -137 c13 -62 13 -63 68 -90 30 -15 62 -27
71 -27 9 -1 40 15 69 35 l52 36 25 -25 25 -25 -36 -52 c-20 -29 -36 -60 -35
-69 0 -9 12 -41 27 -71 27 -55 28 -55 90 -68 61 -14 62 -14 62 -47 0 -33 -1
-33 -62 -47 -62 -13 -63 -13 -90 -68 -15 -30 -27 -62 -27 -70 -1 -8 15 -39 35
-69 l36 -53 -23 -24 -24 -23 -47 30 c-40 26 -48 36 -48 63 -1 17 -7 42 -14 55
-12 22 -11 28 15 63 70 98 56 240 -33 325 -93 89 -244 97 -360 18 -59 -39 -68
-41 -107 -21 -23 12 -29 25 -40 82 -10 57 -10 69 2 82 13 12 22 9 68 -22 30
-20 61 -36 69 -35 8 0 40 12 70 27 55 27 55 28 68 90 14 61 14 62 47 62 33 0
33 -1 47 -62z m-452 -175 c7 -38 16 -76 19 -86 6 -16 82 -55 142 -74 10 -3 47
16 88 43 l72 48 36 -37 37 -36 -48 -70 c-53 -76 -52 -71 -12 -166 27 -64 30
-66 129 -85 l67 -12 0 -53 0 -52 -75 -13 c-41 -7 -81 -18 -89 -24 -12 -10 -66
-131 -66 -149 0 -4 21 -39 47 -78 l47 -70 -36 -36 -36 -35 -61 41 c-33 23 -67
44 -75 47 -24 9 -157 -48 -166 -71 -4 -11 -13 -50 -20 -87 l-12 -68 -53 0 -52
0 -13 73 c-7 39 -15 78 -18 85 -5 15 -126 72 -151 72 -9 0 -47 -21 -85 -46
l-69 -46 -35 35 -36 36 47 70 c46 70 55 98 38 117 -4 5 -16 31 -26 57 -10 26
-23 51 -29 55 -6 3 -45 14 -86 22 l-75 16 -3 51 -3 51 68 12 c37 7 77 16 88
20 23 9 80 142 71 166 -3 8 -24 42 -47 75 l-41 61 35 36 35 35 74 -47 c40 -26
80 -45 88 -42 50 15 134 56 140 68 4 7 13 46 20 86 l13 72 52 0 53 0 12 -67z
m500 -85 c94 -64 108 -178 32 -257 -32 -33 -42 -38 -70 -34 -25 4 -37 14 -52
42 l-18 37 44 69 c49 76 53 100 23 139 -26 33 -6 35 41 4z"/>
<path d="M1489 1999 c-137 -20 -237 -129 -247 -269 -7 -98 17 -160 87 -231 38
-38 72 -61 105 -72 149 -51 308 18 373 160 33 72 30 183 -7 256 -57 113 -181
175 -311 156z m115 -91 c81 -25 146 -118 146 -210 0 -50 -44 -131 -88 -161
-90 -61 -186 -56 -267 15 -112 99 -89 274 46 342 58 29 100 32 163 14z"/>
<path d="M1506 1734 c-21 -20 -20 -30 5 -55 18 -18 23 -19 42 -6 28 18 32 40
12 61 -21 20 -39 20 -59 0z"/>
<path d="M813 2311 c-197 -57 -321 -177 -387 -373 -35 -104 -34 -114 10 -123
20 -3 37 -5 39 -3 1 2 10 30 20 62 40 142 130 263 232 312 30 15 88 37 130 48
81 23 106 43 87 74 -15 23 -57 24 -131 3z"/>
<path d="M356 1691 c-38 -42 17 -93 57 -53 19 20 19 22 3 46 -20 31 -37 33
-60 7z"/>
</g>
</svg>
