<svg width="279" height="298" viewBox="0 0 279 298" fill="none" xmlns="http://www.w3.org/2000/svg">
<path d="M126.433 30.4905V55.8967C130.698 55.3601 135.01 55.079 139.359 55.079C143.708 55.079 148.02 55.3601 152.285 55.8967V30.4905H126.433Z" fill="#B5DCFF"/>
<path d="M139.359 30.4905H126.433V55.8967C130.697 55.3601 135.01 55.079 139.359 55.079V30.4905Z" fill="#8BCAFF"/>
<path d="M207.132 76.1188L219.971 55.5957L204.148 45.948L191.132 66.7597C196.68 69.4493 202.027 72.5736 207.132 76.1188Z" fill="#B5DCFF"/>
<path d="M212.241 50.8832L204.148 45.9487L191.132 66.7604C193.978 68.1404 196.771 69.6368 199.507 71.2438L212.241 50.8832Z" fill="#8BCAFF"/>
<path d="M87.586 66.7603L74.57 45.366L58.7463 55.0137L71.5859 76.1188C76.6915 72.5742 82.0386 69.4493 87.586 66.7603V66.7603Z" fill="#B5DCFF"/>
<path d="M66.7306 50.1462L58.7469 55.0144L71.5865 76.1194C74.155 74.3355 76.7858 72.6586 79.4719 71.0895L66.7306 50.1462Z" fill="#8BCAFF"/>
<path d="M139.359 294.006C107.259 294.006 77.0798 281.506 54.3817 258.807C31.6835 236.109 19.1826 205.93 19.1826 173.83C19.1826 141.729 31.6835 111.55 54.3817 88.8521C77.0798 66.154 107.259 53.6531 139.359 53.6531C171.459 53.6531 201.638 66.1534 224.337 88.8521C247.035 111.551 259.535 141.73 259.535 173.83C259.535 205.929 247.035 236.109 224.337 258.807C201.638 281.506 171.46 294.006 139.359 294.006V294.006Z" fill="#80B4FB"/>
<path d="M81.8828 258.807C59.1846 236.109 46.6837 205.93 46.6837 173.83C46.6837 141.729 59.1846 111.55 81.8828 88.8521C101.308 69.4274 126.213 57.4794 153.11 54.4347C148.577 53.9214 143.989 53.6531 139.36 53.6531C107.259 53.6531 77.0804 66.1534 54.3823 88.8521C31.6835 111.55 19.1826 141.729 19.1826 173.83C19.1826 205.93 31.6835 236.109 54.3823 258.807C77.081 281.505 107.259 294.006 139.36 294.006C143.989 294.006 148.577 293.738 153.11 293.224C126.212 290.18 101.308 278.232 81.8828 258.807V258.807Z" fill="#61A2F9"/>
<path d="M158.7 4.73657H120.018C115.511 4.73657 111.858 8.38998 111.858 12.8967V24.7323C111.858 29.2389 115.511 32.8923 120.018 32.8923H158.7C163.207 32.8923 166.86 29.2389 166.86 24.7323V12.8967C166.86 8.3894 163.207 4.73657 158.7 4.73657V4.73657Z" fill="#DBEDFF"/>
<path d="M208.785 243.288C247.147 204.926 247.147 142.728 208.785 104.366C170.423 66.004 108.226 66.004 69.8636 104.366C31.5015 142.728 31.5015 204.926 69.8636 243.288C108.226 281.65 170.423 281.65 208.785 243.288Z" fill="#DBEDFF"/>
<path d="M139.36 75.5823V173.829H237.607C237.606 119.655 193.533 75.5823 139.36 75.5823V75.5823Z" fill="#DD636E"/>
<path d="M68.613 173.83C68.613 124.322 105.423 83.2576 153.11 76.549C148.615 75.917 144.026 75.5823 139.359 75.5823C85.1852 75.5823 41.1119 119.656 41.1119 173.83C41.1119 228.003 85.1852 272.076 139.359 272.076C144.025 272.076 148.615 271.742 153.11 271.109C105.423 264.401 68.613 223.337 68.613 173.83V173.83Z" fill="#B5DCFF"/>
<path d="M233.187 36.1664L214.704 24.8977C211.279 22.8088 206.808 23.8925 204.719 27.319L199.233 36.3166C197.145 39.7424 198.228 44.2136 201.654 46.3019L220.137 57.5706C223.562 59.6595 228.033 58.5752 230.122 55.1494L235.608 46.1517C237.696 42.7259 236.613 38.2553 233.187 36.1664Z" fill="#DBEDFF"/>
<path d="M45.5312 36.1664L64.0136 24.8977C67.4395 22.8088 71.9101 23.8925 73.999 27.319L79.4846 36.3166C81.5735 39.7424 80.4898 44.2136 77.0639 46.3019L58.5815 57.5706C55.1557 59.6595 50.6851 58.5752 48.5962 55.1494L43.1106 46.1517C41.0211 42.7259 42.1054 38.2553 45.5312 36.1664V36.1664Z" fill="#DBEDFF"/>
<path d="M128.558 24.7323V12.8967C128.558 8.38998 132.211 4.73657 136.718 4.73657H120.018C115.511 4.73657 111.858 8.3894 111.858 12.8967V24.7323C111.858 29.2389 115.511 32.8923 120.018 32.8923H136.718C132.211 32.8923 128.558 29.2389 128.558 24.7323V24.7323Z" fill="#B5DCFF"/>
<path d="M218.354 46.3019C214.928 44.213 213.844 39.7424 215.933 36.3166L220.675 28.5383L214.705 24.8977C211.279 22.8088 206.809 23.8925 204.72 27.319L199.234 36.3166C197.145 39.7424 198.229 44.213 201.655 46.3019L220.137 57.5706C223.563 59.6595 228.034 58.5752 230.122 55.1494L230.866 53.93L218.354 46.3019Z" fill="#B5DCFF"/>
<path d="M59.8096 46.1516C57.7207 42.7258 58.805 38.2552 62.2309 36.1663L74.7422 28.5382L73.999 27.3188C71.91 23.893 67.4395 22.8092 64.0136 24.8976L45.5312 36.1663C42.1054 38.2552 41.0211 42.7258 43.11 46.1516L48.5962 55.1492C50.6851 58.575 55.1557 59.6594 58.5815 57.5705L64.5526 53.9299L59.8096 46.1516Z" fill="#B5DCFF"/>
<path d="M139.359 162.154C142.397 162.154 145.288 163.115 147.683 164.893V107.166C147.683 102.569 143.956 98.842 139.359 98.842C134.762 98.842 131.035 102.568 131.035 107.166V164.894C133.431 163.115 136.321 162.154 139.359 162.154Z" fill="#477B9E"/>
<path d="M139.359 107.165C139.359 104.086 141.035 101.404 143.521 99.9643C142.296 99.2548 140.878 98.8416 139.36 98.8416C134.763 98.8416 131.036 102.568 131.036 107.165V164.893C133.432 163.115 136.321 162.154 139.36 162.154V107.165H139.359Z" fill="#3F6D8E"/>
<path d="M133.12 184.541C130.489 183.022 128.467 180.745 127.281 178.007L110.748 206.733C108.463 210.69 109.75 215.799 113.702 218.092C113.727 218.106 113.752 218.12 113.776 218.134C113.801 218.149 113.826 218.163 113.851 218.177C117.813 220.454 122.881 219.013 125.165 215.056L141.698 186.33C138.735 186.673 135.752 186.06 133.12 184.541V184.541Z" fill="#DD636E"/>
<path d="M120.352 206.734L133.124 184.543C133.123 184.542 133.121 184.542 133.121 184.541C130.49 183.022 128.467 180.745 127.282 178.007L110.749 206.733C108.464 210.69 109.75 215.799 113.702 218.092C113.727 218.106 113.752 218.12 113.776 218.134C113.801 218.149 113.826 218.163 113.851 218.177C116.724 219.828 120.175 219.516 122.727 217.715C119.236 215.277 118.184 210.489 120.352 206.734V206.734Z" fill="#DA4A54"/>
<path d="M139.359 187.833C131.62 187.833 125.356 181.57 125.356 173.83C125.356 166.09 131.619 159.826 139.359 159.826C147.098 159.826 153.362 166.089 153.362 173.83C153.362 181.569 147.099 187.833 139.359 187.833Z" fill="#477B9E"/>
<path d="M139.359 173.83C139.359 168.642 142.174 164.121 146.36 161.702C144.301 160.511 141.911 159.826 139.359 159.826C131.619 159.826 125.356 166.09 125.356 173.83C125.356 181.57 131.62 187.833 139.359 187.833C141.911 187.833 144.301 187.148 146.361 185.957C142.175 183.538 139.359 179.017 139.359 173.83V173.83Z" fill="#3F6D8E"/>
<path d="M139.216 70.8457C82.6353 70.8457 36.6035 116.878 36.6035 173.458C36.6035 230.039 82.6353 276.071 139.216 276.071C195.797 276.071 241.828 230.039 241.828 173.458C241.828 116.878 195.797 70.8457 139.216 70.8457ZM135.257 106.794C135.257 104.611 137.033 102.835 139.216 102.835C141.399 102.835 143.174 104.611 143.174 106.794V155.514C140.713 154.976 137.951 154.926 135.257 155.514V106.794ZM114.386 208.545L126.81 187.024C127.784 187.91 128.86 188.696 130.027 189.37H130.027C131.194 190.044 132.413 190.583 133.667 190.983L121.242 212.503C120.143 214.407 117.739 215.089 115.846 214.001L115.75 213.946V213.946C113.899 212.871 113.286 210.449 114.386 208.545ZM129.578 173.458C129.578 168.122 133.926 163.82 139.216 163.82H139.218C144.462 163.82 148.854 168.078 148.854 173.458C148.854 178.772 144.53 183.096 139.216 183.096C133.901 183.096 129.578 178.772 129.578 173.458V173.458ZM222.601 216.56L216.386 212.972C214.297 211.766 211.627 212.481 210.423 214.57C209.218 216.657 209.933 219.327 212.021 220.532L218.226 224.115C210.919 235.473 201.231 245.161 189.873 252.468L186.291 246.263C185.085 244.175 182.415 243.461 180.328 244.665C178.24 245.871 177.525 248.541 178.73 250.628L182.318 256.843C170.62 262.914 157.492 266.595 143.582 267.235V260.046C143.582 257.635 141.628 255.681 139.217 255.681C136.805 255.681 134.851 257.635 134.851 260.046V267.235C120.941 266.595 107.812 262.914 96.1146 256.843L99.7029 250.629C100.908 248.541 100.193 245.871 98.1052 244.666C96.0174 243.461 93.3465 244.175 92.1423 246.264L88.5598 252.469C77.202 245.161 67.5141 235.474 60.2067 224.115L66.4117 220.533C68.4995 219.328 69.2148 216.658 68.0094 214.57C66.8034 212.482 64.1336 211.768 62.0465 212.972L55.8321 216.561C49.7609 204.862 46.0801 191.733 45.4405 177.824H52.6292C55.0405 177.824 56.9944 175.87 56.9944 173.459C56.9944 171.047 55.0405 169.094 52.6292 169.094H45.4387C46.079 155.184 49.7592 142.055 55.8303 130.357L62.0453 133.945C64.1319 135.15 66.8028 134.436 68.0082 132.347C69.2136 130.26 68.4983 127.59 66.4106 126.385L60.2055 122.802C67.5129 111.444 77.2009 101.756 88.5587 94.4489L92.1411 100.655C93.3465 102.743 96.0174 103.457 98.104 102.252C100.192 101.047 100.907 98.3771 99.7017 96.2893L96.1135 90.0743C107.812 84.0031 120.94 80.3224 134.85 79.6827L134.851 94.8808C129.998 96.6641 126.526 101.332 126.526 106.796V160.198C123.031 163.544 120.847 168.25 120.847 173.459C120.847 175.248 121.108 176.975 121.587 178.611L106.825 204.181C103.738 209.527 104.511 217.125 111.532 221.593C117.564 225.058 125.307 222.924 128.802 216.87L143.563 191.304C150.198 189.687 155.432 184.458 157.055 177.825H232.993C232.353 191.733 228.673 204.862 222.601 216.56V216.56ZM218.222 122.803L212.021 126.383C209.933 127.589 209.218 130.259 210.423 132.346C211.628 134.435 214.299 135.149 216.386 133.944L222.6 130.356C228.729 142.155 232.333 155.171 232.993 169.092C229.963 169.092 160.44 169.092 157.056 169.092C156.22 165.677 154.383 162.55 151.905 160.177V106.793C151.905 101.353 148.432 96.6571 143.581 94.8779C143.581 79.997 143.581 92.9851 143.581 79.6798C157.086 80.3072 170.212 83.7913 182.317 90.0732L178.729 96.287C177.524 98.3747 178.239 101.045 180.327 102.25C182.417 103.456 185.086 102.738 186.29 100.652L189.87 94.4512C201.25 101.78 210.882 111.396 218.222 122.803V122.803Z" fill="black"/>
<path d="M259.323 167.622C261.726 167.422 263.511 165.312 263.311 162.909C260.374 127.689 242.388 94.9791 213.407 73.3968L220.299 62.0931C225.301 63.6704 230.871 61.7008 233.706 57.0509L239.192 48.0533C242.53 42.5775 240.792 35.4063 235.316 32.0683L216.834 20.8001C211.346 17.4523 204.195 19.1862 200.849 24.6753L195.363 33.673C192.529 38.3211 193.364 44.1816 197.026 47.8915L189.878 59.6159C179.316 54.9108 168.103 51.7096 156.507 50.109V36.8864H158.556C165.463 36.8864 171.082 31.2674 171.082 24.3604V12.5254C171.082 5.61837 165.463 0 158.557 0H149.402C146.99 0 145.036 1.95389 145.036 4.36525C145.036 6.77662 146.99 8.7305 149.402 8.7305H158.557C160.649 8.7305 162.352 10.433 162.352 12.5254V24.361C162.352 26.454 160.649 28.1565 158.557 28.1565C154.436 28.1565 123.848 28.1565 119.875 28.1565C117.783 28.1565 116.08 26.454 116.08 24.361V12.5254C116.08 10.433 117.783 8.7305 119.875 8.7305H129.03C131.441 8.7305 133.395 6.77662 133.395 4.36525C133.395 1.95389 131.441 0 129.03 0H119.875C112.969 0 107.35 5.61837 107.35 12.5254V24.361C107.35 31.2674 112.968 36.887 119.875 36.887H121.924V50.109C110.328 51.7102 99.1156 54.9114 88.5535 59.6165L81.4049 47.8915C85.0677 44.1816 85.9029 38.3211 83.0689 33.673L77.5827 24.6753C74.2424 19.196 67.0985 17.447 61.5977 20.8001L43.1153 32.0683C37.6401 35.4063 35.901 42.5775 39.2401 48.0533L44.7263 57.0509C47.5422 61.6705 53.0977 63.6809 58.1329 62.0931L65.0253 73.3973C33.9028 96.5751 14.6742 132.917 14.6742 173.458C14.6742 242.295 70.3777 298.001 139.217 298.001C205.032 298.001 258.038 247.266 263.311 184.007C263.512 181.604 261.726 179.494 259.324 179.294C256.935 179.088 254.812 180.879 254.611 183.282C249.706 242.108 200.394 289.271 139.216 289.271C75.208 289.271 23.4041 237.474 23.4041 173.459C23.4041 109.407 75.1841 57.6475 139.216 57.6475C200.469 57.6475 249.711 104.882 254.611 163.636C254.811 166.037 256.922 167.839 259.323 167.622V167.622ZM56.1656 53.4726C54.8008 54.3043 53.0174 53.8783 52.1798 52.5058L46.6936 43.5082C45.8613 42.1427 46.2943 40.3547 47.6598 39.5218L66.1423 28.2537C67.524 27.412 69.3004 27.8625 70.1286 29.2198L75.6148 38.2175C76.4472 39.5841 76.0199 41.3669 74.6481 42.2038C71.387 44.1915 60.3534 50.9192 56.1656 53.4726V53.4726ZM72.2198 68.4268L65.7668 57.8437C68.7957 55.9969 71.1076 54.5872 74.1365 52.7404L80.6756 63.4661C77.7975 65.0027 74.9781 66.6597 72.2198 68.4268V68.4268ZM147.777 49.2104C142.169 48.8274 136.411 48.8181 130.655 49.2104V36.8864H147.777V49.2104ZM202.817 38.2175L208.303 29.2198C209.137 27.8538 210.917 27.4173 212.289 28.2537L230.772 39.5218C232.143 40.3588 232.571 42.141 231.738 43.5082L226.252 52.5058C225.416 53.8771 223.632 54.3061 222.266 53.4726C215.766 49.5095 211.361 46.8234 203.783 42.2038C202.418 41.3709 201.985 39.5829 202.817 38.2175ZM206.212 68.4268C203.453 66.6597 200.634 65.0027 197.756 63.4661L204.294 52.741L204.341 52.7695L212.664 57.8442L206.212 68.4268Z" fill="black"/>
</svg>
